<svg xmlns="http://www.w3.org/2000/svg" xmlns:xlink="http://www.w3.org/1999/xlink" width="500" zoomAndPan="magnify" viewBox="0 0 375 525.000007" height="700" preserveAspectRatio="xMidYMid meet" version="1.0"><defs><clipPath id="9522e7ee5e"><path d="M 0.355469 246 L 155 246 L 155 258 L 0.355469 258 Z M 0.355469 246 " clip-rule="nonzero"/></clipPath><clipPath id="7734ebecd2"><path d="M 239 365 L 374.640625 365 L 374.640625 449 L 239 449 Z M 239 365 " clip-rule="nonzero"/></clipPath><clipPath id="cd1a145b29"><path d="M 65 233 L 72 233 L 72 240 L 65 240 Z M 65 233 " clip-rule="nonzero"/></clipPath><clipPath id="941ad5655c"><path d="M 54.859375 237.847656 L 83.828125 227.714844 L 93.960938 256.683594 L 64.988281 266.816406 Z M 54.859375 237.847656 " clip-rule="nonzero"/></clipPath><clipPath id="55927d20d4"><path d="M 54.859375 237.847656 L 83.828125 227.714844 L 93.960938 256.683594 L 64.988281 266.816406 Z M 54.859375 237.847656 " clip-rule="nonzero"/></clipPath><clipPath id="5f07270ab5"><path d="M 75 255 L 83 255 L 83 262 L 75 262 Z M 75 255 " clip-rule="nonzero"/></clipPath><clipPath id="03685450e8"><path d="M 54.859375 237.847656 L 83.828125 227.714844 L 93.960938 256.683594 L 64.988281 266.816406 Z M 54.859375 237.847656 " clip-rule="nonzero"/></clipPath><clipPath id="9f9e258dc6"><path d="M 54.859375 237.847656 L 83.828125 227.714844 L 93.960938 256.683594 L 64.988281 266.816406 Z M 54.859375 237.847656 " clip-rule="nonzero"/></clipPath><clipPath id="5b061e402f"><path d="M 76 236 L 89 236 L 89 249 L 76 249 Z M 76 236 " clip-rule="nonzero"/></clipPath><clipPath id="09b28d7a66"><path d="M 54.859375 237.847656 L 83.828125 227.714844 L 93.960938 256.683594 L 64.988281 266.816406 Z M 54.859375 237.847656 " clip-rule="nonzero"/></clipPath><clipPath id="fbc44b9032"><path d="M 54.859375 237.847656 L 83.828125 227.714844 L 93.960938 256.683594 L 64.988281 266.816406 Z M 54.859375 237.847656 " clip-rule="nonzero"/></clipPath><clipPath id="785f711e26"><path d="M 60 248 L 71 248 L 71 258 L 60 258 Z M 60 248 " clip-rule="nonzero"/></clipPath><clipPath id="f80e68a981"><path d="M 54.859375 237.847656 L 83.828125 227.714844 L 93.960938 256.683594 L 64.988281 266.816406 Z M 54.859375 237.847656 " clip-rule="nonzero"/></clipPath><clipPath id="a062f90e7e"><path d="M 54.859375 237.847656 L 83.828125 227.714844 L 93.960938 256.683594 L 64.988281 266.816406 Z M 54.859375 237.847656 " clip-rule="nonzero"/></clipPath></defs><path fill="#10446d" d="M 72.058594 213.347656 L 127.441406 213.347656 L 127.441406 246.941406 L 72.058594 246.941406 Z M 72.058594 213.347656 " fill-opacity="1" fill-rule="nonzero"/><path fill="#4cabf4" d="M 80.285156 218.34375 L 80.285156 242 L 93.429688 242 C 96.820312 233.613281 100.183594 224.964844 106.386719 218.34375 Z M 80.285156 218.34375 " fill-opacity="1" fill-rule="nonzero"/><path fill="#fdeaea" d="M 106.308594 218.34375 C 100.105469 224.914062 96.742188 233.5625 93.351562 242 L 94.980469 242 C 99.578125 234.113281 105.203125 226.226562 110.171875 218.34375 Z M 106.308594 218.34375 " fill-opacity="1" fill-rule="nonzero"/><path fill="#fdeaea" d="M 119.1875 225.625 C 115.007812 230.460938 113.929688 236.480469 111.300781 241.945312 L 114.507812 241.945312 C 115.621094 238.238281 117.191406 234.734375 119.214844 231.433594 Z M 119.1875 225.625 " fill-opacity="1" fill-rule="nonzero"/><path fill="#4cabf4" d="M 119.1875 231.5625 C 117.164062 234.863281 115.59375 238.367188 114.484375 242.078125 L 119.1875 242.078125 Z M 119.1875 231.5625 " fill-opacity="1" fill-rule="nonzero"/><path fill="#4cabf4" d="M 119.1875 225.625 L 119.1875 218.34375 L 110.25 218.34375 C 105.28125 226.226562 99.738281 234.113281 95.058594 242 L 111.277344 242 C 113.851562 236.480469 115.007812 230.460938 119.1875 225.625 Z M 119.1875 225.625 " fill-opacity="1" fill-rule="nonzero"/><path fill="#ffca40" d="M 61.625 200.285156 L 101.183594 200.285156 L 101.183594 247.730469 L 61.625 247.730469 Z M 61.625 200.285156 " fill-opacity="1" fill-rule="nonzero"/><path fill="#4cabf4" d="M 67.511719 207.328125 L 67.511719 225.253906 C 71.246094 219.105469 75.527344 213.191406 79.601562 207.328125 Z M 67.511719 207.328125 " fill-opacity="1" fill-rule="nonzero"/><path fill="#fdeaea" d="M 79.601562 207.328125 C 75.527344 213.191406 71.246094 219.105469 67.511719 225.253906 L 67.511719 229.144531 C 72.730469 221.460938 78.46875 214.191406 84.730469 207.328125 Z M 79.601562 207.328125 " fill-opacity="1" fill-rule="nonzero"/><path fill="#4cabf4" d="M 92.796875 207.328125 L 84.730469 207.328125 C 78.46875 214.191406 72.730469 221.460938 67.511719 229.144531 L 67.511719 240.683594 L 73.953125 240.683594 C 80.234375 229.566406 85.570312 218.132812 92.796875 207.328125 Z M 92.796875 207.328125 " fill-opacity="1" fill-rule="nonzero"/><path fill="#fdeaea" d="M 95.320312 207.328125 L 92.691406 207.328125 C 85.464844 218.132812 80.128906 229.566406 73.898438 240.683594 L 77.371094 240.683594 C 83.230469 230.75 90.25 221.96875 95.320312 211.246094 Z M 95.320312 207.328125 " fill-opacity="1" fill-rule="nonzero"/><path fill="#4cabf4" d="M 95.320312 211.246094 C 90.25 221.96875 83.230469 230.75 77.371094 240.683594 L 95.320312 240.683594 Z M 95.320312 211.246094 " fill-opacity="1" fill-rule="nonzero"/><path fill="#176fb5" d="M 82.335938 410.035156 L 123.761719 410.035156 L 123.761719 444.9375 L 82.335938 444.9375 Z M 82.335938 410.035156 " fill-opacity="1" fill-rule="nonzero"/><path fill="#4cabf4" d="M 88.488281 415.210938 L 88.488281 428.355469 C 92.402344 423.832031 96.871094 419.46875 101.15625 415.210938 Z M 88.488281 415.210938 " fill-opacity="1" fill-rule="nonzero"/><path fill="#fdeaea" d="M 101.15625 415.210938 C 96.871094 419.523438 92.402344 423.886719 88.488281 428.355469 L 88.488281 431.191406 C 94.121094 425.421875 100.128906 420.078125 106.519531 415.160156 Z M 101.15625 415.210938 " fill-opacity="1" fill-rule="nonzero"/><path fill="#4cabf4" d="M 114.980469 415.210938 L 106.519531 415.210938 C 100.128906 420.128906 94.121094 425.476562 88.488281 431.246094 L 88.488281 439.761719 L 95.296875 439.761719 C 101.8125 431.558594 107.410156 423.175781 114.980469 415.210938 Z M 114.980469 415.210938 " fill-opacity="1" fill-rule="nonzero"/><path fill="#fdeaea" d="M 117.609375 415.210938 L 114.980469 415.210938 C 107.410156 423.097656 101.839844 431.558594 95.296875 439.761719 L 98.816406 439.761719 C 104.941406 432.429688 112.300781 425.960938 117.609375 418.078125 Z M 117.609375 415.210938 " fill-opacity="1" fill-rule="nonzero"/><path fill="#4cabf4" d="M 117.609375 418.078125 C 112.351562 425.960938 104.941406 432.429688 98.816406 439.761719 L 117.609375 439.761719 Z M 117.609375 418.078125 " fill-opacity="1" fill-rule="nonzero"/><path fill="#10446d" d="M 23.589844 256.71875 L 27.535156 256.71875 L 27.535156 522.347656 L 23.589844 522.347656 Z M 23.589844 256.71875 " fill-opacity="1" fill-rule="nonzero"/><path fill="#10446d" d="M 127.363281 257.691406 L 131.304688 257.691406 L 131.304688 523.320312 L 127.363281 523.320312 Z M 127.363281 257.691406 " fill-opacity="1" fill-rule="nonzero"/><path fill="#176fb5" d="M 116.796875 355.179688 C 115.074219 351.394531 112.734375 348.039062 109.777344 345.113281 L 111.277344 338.355469 L 103.234375 338.59375 C 103.523438 340.773438 103.8125 342.957031 104.074219 345.113281 C 101.457031 348.628906 99.503906 352.484375 98.210938 356.675781 C 96.773438 361.351562 96.273438 366.128906 96.714844 371 L 119.816406 371 C 120.089844 365.484375 119.082031 360.207031 116.796875 355.179688 Z M 116.796875 355.179688 " fill-opacity="1" fill-rule="nonzero"/><path fill="#fdeaea" d="M 101.3125 362.171875 L 100 362.171875 C 100.046875 360.089844 100.398438 358.0625 101.050781 356.085938 C 101.707031 354.113281 102.632812 352.277344 103.835938 350.578125 L 104.914062 351.339844 C 103.785156 352.925781 102.914062 354.640625 102.300781 356.484375 C 101.6875 358.332031 101.359375 360.226562 101.3125 362.171875 Z M 101.3125 362.171875 " fill-opacity="1" fill-rule="nonzero"/><path fill="#4cabf4" d="M 34.367188 212.980469 C 34.9375 211.726562 35.21875 210.414062 35.210938 209.039062 C 35.214844 208.144531 35.09375 207.269531 34.855469 206.40625 C 34.617188 205.546875 34.265625 204.734375 33.800781 203.972656 C 33.339844 203.210938 32.777344 202.523438 32.125 201.914062 C 31.472656 201.304688 30.746094 200.796875 29.953125 200.390625 L 29.953125 193.082031 L 21.382812 193.082031 L 21.382812 200.417969 C 20.589844 200.824219 19.863281 201.332031 19.210938 201.941406 C 18.558594 202.550781 18 203.234375 17.535156 204 C 17.070312 204.761719 16.71875 205.574219 16.480469 206.433594 C 16.242188 207.292969 16.125 208.171875 16.128906 209.066406 C 16.117188 210.441406 16.398438 211.753906 16.96875 213.007812 C 16.269531 213.546875 15.640625 214.160156 15.085938 214.84375 C 14.527344 215.527344 14.054688 216.265625 13.667969 217.058594 C 13.28125 217.851562 12.988281 218.679688 12.789062 219.539062 C 12.59375 220.398438 12.496094 221.273438 12.5 222.152344 L 12.5 243.550781 C 12.496094 243.996094 12.578125 244.429688 12.75 244.84375 C 12.917969 245.261719 13.160156 245.628906 13.476562 245.945312 C 13.792969 246.265625 14.15625 246.507812 14.570312 246.679688 C 14.984375 246.855469 15.414062 246.941406 15.863281 246.941406 L 35.683594 246.941406 C 36.132812 246.941406 36.5625 246.855469 36.976562 246.679688 C 37.390625 246.507812 37.753906 246.265625 38.070312 245.945312 C 38.386719 245.628906 38.628906 245.261719 38.796875 244.84375 C 38.96875 244.429688 39.050781 243.996094 39.046875 243.550781 L 39.046875 222.128906 C 39.039062 221.238281 38.925781 220.359375 38.714844 219.492188 C 38.5 218.625 38.191406 217.796875 37.785156 217.003906 C 37.378906 216.210938 36.886719 215.472656 36.308594 214.792969 C 35.734375 214.113281 35.085938 213.511719 34.367188 212.980469 Z M 34.367188 212.980469 " fill-opacity="1" fill-rule="nonzero"/><path fill="#fdeaea" d="M 18.992188 210.746094 C 18.898438 209.332031 19.054688 207.949219 19.464844 206.589844 C 19.871094 205.234375 20.5 203.992188 21.359375 202.863281 L 22.410156 203.648438 C 21.640625 204.65625 21.074219 205.765625 20.707031 206.980469 C 20.339844 208.191406 20.199219 209.429688 20.28125 210.695312 Z M 18.992188 210.746094 " fill-opacity="1" fill-rule="nonzero"/><path fill="#fdeaea" d="M 16.128906 235.796875 C 15.96875 232.246094 15.890625 228.644531 15.890625 225.070312 C 15.714844 222.382812 16.171875 219.808594 17.257812 217.34375 L 18.414062 217.949219 C 17.4375 220.226562 17.035156 222.601562 17.203125 225.070312 C 17.203125 228.621094 17.203125 232.222656 17.441406 235.585938 Z M 16.128906 235.796875 " fill-opacity="1" fill-rule="nonzero"/><path fill="#4cabf4" d="M 118.292969 273.628906 L 127.757812 277.492188 L 112.953125 313.75 L 103.488281 309.886719 Z M 118.292969 273.628906 " fill-opacity="1" fill-rule="nonzero"/><path fill="#ffca40" d="M 93.847656 274.539062 L 103.363281 274.539062 L 103.363281 313.78125 L 93.847656 313.78125 Z M 93.847656 274.539062 " fill-opacity="1" fill-rule="nonzero"/><path fill="#f35f65" d="M 86.332031 276.351562 L 92.824219 276.351562 L 92.824219 313.78125 L 86.332031 313.78125 Z M 86.332031 276.351562 " fill-opacity="1" fill-rule="nonzero"/><path fill="#176fb5" d="M 76.210938 274.539062 L 85.308594 274.539062 L 85.308594 313.78125 L 76.210938 313.78125 Z M 76.210938 274.539062 " fill-opacity="1" fill-rule="nonzero"/><path fill="#2b94e6" d="M 29.953125 304.738281 L 72.058594 304.738281 L 72.058594 313.78125 L 29.953125 313.78125 Z M 29.953125 304.738281 " fill-opacity="1" fill-rule="nonzero"/><path fill="#f35f65" d="M 34.65625 298.40625 L 73.347656 298.40625 L 73.347656 304.738281 L 34.65625 304.738281 Z M 34.65625 298.40625 " fill-opacity="1" fill-rule="nonzero"/><path fill="#4cabf4" d="M 34.527344 407.878906 C 34.167969 406.753906 34.066406 405.605469 34.210938 404.433594 C 34.761719 405.75 36.183594 406.484375 37.339844 407.351562 C 38.328125 408.117188 39.203125 408.992188 39.964844 409.980469 C 40.863281 411.0625 41.671875 412.210938 42.386719 413.425781 C 43.125 414.621094 43.757812 415.875 44.277344 417.183594 C 44.824219 418.476562 45.277344 419.796875 45.644531 421.152344 C 45.992188 422.527344 46.246094 423.921875 46.40625 425.332031 L 46.40625 426.355469 C 46.445312 426.671875 46.445312 426.988281 46.40625 427.300781 C 46.40625 427.75 45.828125 427.589844 45.539062 427.433594 C 45.050781 427.179688 44.65625 426.820312 44.355469 426.355469 L 43.09375 424.570312 C 42.226562 423.332031 41.386719 422.125 40.597656 420.863281 C 39.808594 419.601562 39.019531 418.234375 38.3125 417.078125 C 37.582031 415.800781 36.921875 414.484375 36.339844 413.136719 C 35.730469 411.792969 35.210938 410.417969 34.789062 409.007812 Z M 34.527344 407.878906 " fill-opacity="1" fill-rule="nonzero"/><path fill="#176fb5" d="M 46.039062 408.378906 C 46.242188 407.179688 46.769531 406.148438 47.617188 405.277344 C 47.769531 406.960938 48.320312 408.503906 49.269531 409.902344 C 49.835938 411.152344 50.253906 412.449219 50.53125 413.792969 C 50.871094 415.289062 51.082031 416.804688 51.164062 418.339844 C 51.28125 419.828125 51.28125 421.316406 51.164062 422.808594 C 50.992188 424.234375 50.703125 425.636719 50.296875 427.011719 C 49.921875 428.390625 49.421875 429.722656 48.796875 431.007812 L 48.324219 431.953125 C 48.167969 432.191406 48.0625 432.558594 47.824219 432.742188 C 47.589844 432.925781 47.0625 432.585938 46.851562 432.269531 C 46.503906 431.742188 46.292969 431.164062 46.222656 430.535156 C 46.089844 429.746094 45.984375 428.933594 45.878906 428.144531 C 45.644531 426.539062 45.460938 424.910156 45.300781 423.308594 C 45.144531 421.703125 45.039062 420.125 45.011719 418.574219 C 44.941406 417.007812 44.949219 415.4375 45.039062 413.871094 C 45.160156 412.347656 45.386719 410.839844 45.722656 409.351562 C 45.855469 409.085938 45.933594 408.613281 46.039062 408.378906 Z M 46.039062 408.378906 " fill-opacity="1" fill-rule="nonzero"/><path fill="#4cabf4" d="M 61.597656 407.90625 C 62.53125 407.152344 63.589844 406.703125 64.777344 406.5625 C 63.816406 407.980469 63.253906 409.539062 63.097656 411.242188 C 62.734375 412.570312 62.226562 413.839844 61.574219 415.054688 C 60.855469 416.414062 60.039062 417.707031 59.128906 418.945312 C 58.238281 420.144531 57.253906 421.265625 56.183594 422.308594 C 55.144531 423.277344 54.03125 424.152344 52.847656 424.9375 C 51.660156 425.730469 50.414062 426.421875 49.113281 427.011719 L 48.140625 427.433594 C 47.867188 427.582031 47.578125 427.675781 47.273438 427.722656 C 46.828125 427.722656 46.800781 427.117188 46.828125 426.722656 C 46.90625 426.105469 47.117188 425.535156 47.457031 425.015625 L 48.71875 422.9375 C 49.585938 421.574219 50.480469 420.3125 51.347656 418.863281 C 52.214844 417.417969 53.1875 416.238281 54.160156 415.054688 C 55.117188 413.828125 56.140625 412.664062 57.234375 411.558594 C 58.359375 410.496094 59.550781 409.511719 60.808594 408.613281 Z M 61.597656 407.90625 " fill-opacity="1" fill-rule="nonzero"/><path fill="#ffca40" d="M 34.527344 424.753906 L 63.125 424.753906 L 63.125 435.921875 C 63.125 436.53125 63.0625 437.128906 62.945312 437.722656 C 62.828125 438.316406 62.652344 438.894531 62.421875 439.453125 C 62.1875 440.015625 61.90625 440.546875 61.566406 441.050781 C 61.230469 441.554688 60.847656 442.019531 60.421875 442.445312 C 59.992188 442.875 59.527344 443.257812 59.023438 443.59375 C 58.519531 443.929688 57.988281 444.214844 57.429688 444.445312 C 56.867188 444.679688 56.292969 444.855469 55.695312 444.972656 C 55.101562 445.089844 54.503906 445.148438 53.898438 445.148438 L 43.882812 445.148438 C 43.273438 445.15625 42.667969 445.105469 42.066406 444.996094 C 41.46875 444.882812 40.882812 444.714844 40.316406 444.488281 C 39.75 444.261719 39.214844 443.980469 38.703125 443.644531 C 38.191406 443.3125 37.71875 442.929688 37.285156 442.503906 C 36.847656 442.074219 36.460938 441.609375 36.117188 441.105469 C 35.773438 440.597656 35.484375 440.066406 35.25 439.503906 C 35.011719 438.941406 34.832031 438.359375 34.710938 437.761719 C 34.589844 437.164062 34.527344 436.558594 34.527344 435.949219 Z M 34.527344 424.753906 " fill-opacity="1" fill-rule="nonzero"/><path fill="#10446d" d="M 63.125 424.753906 L 34.65625 424.753906 L 34.65625 429.140625 C 44.183594 428.914062 53.671875 429.398438 63.125 430.585938 Z M 63.125 424.753906 " fill-opacity="1" fill-rule="nonzero"/><path fill="#ffca40" d="M 34.34375 423.332031 L 63.4375 423.332031 C 63.679688 423.332031 63.910156 423.378906 64.132812 423.472656 C 64.355469 423.5625 64.550781 423.695312 64.722656 423.863281 C 64.890625 424.035156 65.023438 424.230469 65.113281 424.453125 C 65.207031 424.675781 65.253906 424.90625 65.253906 425.148438 L 65.253906 426.355469 C 65.253906 426.597656 65.207031 426.828125 65.113281 427.050781 C 65.023438 427.273438 64.890625 427.46875 64.722656 427.636719 C 64.550781 427.808594 64.355469 427.941406 64.132812 428.03125 C 63.910156 428.125 63.679688 428.167969 63.4375 428.167969 L 34.34375 428.167969 C 34.101562 428.167969 33.871094 428.125 33.648438 428.03125 C 33.425781 427.941406 33.230469 427.808594 33.058594 427.636719 C 32.890625 427.46875 32.757812 427.273438 32.667969 427.050781 C 32.574219 426.828125 32.527344 426.597656 32.527344 426.355469 L 32.527344 425.148438 C 32.527344 424.90625 32.574219 424.675781 32.667969 424.453125 C 32.757812 424.230469 32.890625 424.035156 33.058594 423.863281 C 33.230469 423.695312 33.425781 423.5625 33.648438 423.472656 C 33.871094 423.378906 34.101562 423.332031 34.34375 423.332031 Z M 34.34375 423.332031 " fill-opacity="1" fill-rule="nonzero"/><path fill="#fd9230" d="M 10.265625 313.78125 L 131.09375 313.78125 L 131.09375 324.53125 L 10.265625 324.53125 Z M 10.265625 313.78125 " fill-opacity="1" fill-rule="nonzero"/><path fill="#fd9230" d="M 23.539062 370.554688 L 144.789062 370.554688 L 144.789062 381.304688 L 23.539062 381.304688 Z M 23.539062 370.554688 " fill-opacity="1" fill-rule="nonzero"/><path fill="#fd9230" d="M 10.265625 444.9375 L 131.09375 444.9375 L 131.09375 455.6875 L 10.265625 455.6875 Z M 10.265625 444.9375 " fill-opacity="1" fill-rule="nonzero"/><g clip-path="url(#9522e7ee5e)"><path fill="#fd9230" d="M 0.355469 246.941406 L 154.722656 246.941406 L 154.722656 257.691406 L 0.355469 257.691406 Z M 0.355469 246.941406 " fill-opacity="1" fill-rule="nonzero"/></g><path fill="#4cabf4" d="M 34.65625 350.789062 C 34.339844 351.996094 34.175781 353.226562 34.160156 354.476562 C 34.148438 355.726562 34.285156 356.957031 34.578125 358.171875 C 34.871094 359.386719 35.304688 360.550781 35.882812 361.65625 C 36.460938 362.765625 37.164062 363.785156 37.996094 364.71875 C 40.03125 367.097656 42.378906 369.113281 45.039062 370.765625 L 67.433594 371 C 70.976562 369.285156 74.027344 366.929688 76.582031 363.929688 C 77.339844 363.066406 77.957031 362.109375 78.429688 361.0625 C 78.898438 360.011719 79.207031 358.917969 79.347656 357.773438 C 79.488281 356.632812 79.457031 355.496094 79.253906 354.363281 C 79.050781 353.230469 78.6875 352.152344 78.15625 351.128906 Z M 34.65625 350.789062 " fill-opacity="1" fill-rule="nonzero"/><path fill="#fdeaea" d="M 48.300781 366.113281 C 47.640625 365.96875 47 365.769531 46.375 365.519531 C 45.75 365.269531 45.148438 364.96875 44.574219 364.617188 C 44 364.261719 43.457031 363.867188 42.949219 363.421875 C 42.441406 362.980469 41.972656 362.5 41.546875 361.976562 C 41.117188 361.457031 40.738281 360.90625 40.402344 360.320312 C 40.066406 359.734375 39.785156 359.125 39.550781 358.492188 C 39.316406 357.863281 39.140625 357.214844 39.015625 356.550781 C 38.890625 355.890625 38.824219 355.222656 38.808594 354.546875 L 40.125 354.546875 C 40.140625 355.144531 40.203125 355.734375 40.316406 356.320312 C 40.433594 356.90625 40.59375 357.476562 40.800781 358.035156 C 41.007812 358.59375 41.261719 359.132812 41.558594 359.648438 C 41.855469 360.164062 42.195312 360.65625 42.570312 361.117188 C 42.949219 361.578125 43.363281 362.003906 43.8125 362.394531 C 44.261719 362.789062 44.738281 363.140625 45.246094 363.453125 C 45.753906 363.765625 46.285156 364.035156 46.835938 364.261719 C 47.386719 364.488281 47.953125 364.667969 48.535156 364.796875 Z M 48.300781 366.113281 " fill-opacity="1" fill-rule="nonzero"/><path fill="#fdafa0" d="M 268.851562 242.523438 L 291.324219 291.414062 L 329.328125 329.472656 C 329.328125 329.472656 339.632812 338.355469 340.683594 340.433594 C 342.289062 343.078125 343.566406 345.875 344.523438 348.816406 C 344.707031 350.738281 343.128906 357.886719 342.078125 358.226562 C 341.027344 358.570312 340.5 358.226562 340.105469 357.175781 C 339.710938 356.125 341.238281 348.660156 340.605469 347.84375 C 339.976562 347.03125 335.347656 341.378906 334.0625 341.378906 C 332.773438 341.378906 330.460938 341.878906 330.671875 343.535156 C 331.128906 344.65625 331.761719 345.667969 332.570312 346.570312 C 333.375 347.472656 334.3125 348.210938 335.375 348.792969 C 336.296875 348.792969 337.742188 351.15625 336.503906 351.867188 C 335.269531 352.578125 331.0625 350.945312 330.460938 350.632812 C 328.921875 349.542969 327.589844 348.25 326.464844 346.742188 C 325.9375 345.714844 323.679688 335.964844 323.679688 335.964844 C 323.679688 335.964844 278.96875 302.609375 277.839844 301.164062 C 276.707031 299.71875 255.445312 265.390625 255.445312 265.390625 L 242.695312 253.089844 L 252.105469 237.320312 L 261.988281 236.976562 Z M 268.851562 242.523438 " fill-opacity="1" fill-rule="nonzero"/><path fill="#f35f65" d="M 269.007812 243.023438 L 268.851562 242.628906 L 261.988281 237.164062 L 252.105469 237.503906 L 242.695312 253.273438 L 253.550781 263.789062 C 250.632812 256.085938 252.894531 248.019531 258.285156 244.652344 C 259.894531 243.683594 261.625 243.058594 263.484375 242.777344 C 265.339844 242.496094 267.183594 242.578125 269.007812 243.023438 Z M 269.007812 243.023438 " fill-opacity="1" fill-rule="nonzero"/><path fill="#fdafa0" d="M 194.519531 372.445312 C 194.519531 372.445312 196.726562 402.910156 197.332031 407.617188 C 197.933594 412.320312 208.660156 496.191406 208.660156 496.191406 C 208.660156 496.191406 196.121094 514.59375 193.363281 515.984375 C 190.601562 517.378906 186.972656 520.058594 188.550781 521.636719 C 190.128906 523.214844 198.355469 522.1875 200.011719 521.636719 C 201.667969 521.085938 225.296875 509.28125 226.296875 506.496094 C 227.292969 503.710938 223.667969 497.824219 220.800781 495.0625 L 220.800781 404.328125 L 225.191406 374.101562 Z M 194.519531 372.445312 " fill-opacity="1" fill-rule="nonzero"/><g clip-path="url(#7734ebecd2)"><path fill="#fdafa0" d="M 239.304688 372.445312 C 239.304688 372.445312 247.585938 397.074219 252.238281 401.726562 C 256.890625 406.378906 341.339844 432.480469 341.339844 432.480469 C 341.339844 432.480469 369.753906 448.75 371.832031 448.75 C 372.03125 448.773438 372.230469 448.769531 372.429688 448.746094 C 372.628906 448.71875 372.820312 448.667969 373.007812 448.59375 C 373.195312 448.519531 373.371094 448.425781 373.535156 448.308594 C 373.699219 448.191406 373.84375 448.054688 373.972656 447.902344 C 374.105469 447.75 374.214844 447.582031 374.300781 447.402344 C 374.390625 447.222656 374.457031 447.03125 374.5 446.835938 C 374.542969 446.640625 374.558594 446.441406 374.550781 446.238281 C 374.546875 446.039062 374.515625 445.84375 374.460938 445.648438 C 373.933594 444.359375 353.800781 415.160156 351.460938 414.398438 C 350.847656 414.257812 350.226562 414.199219 349.597656 414.222656 C 348.96875 414.246094 348.351562 414.34375 347.75 414.523438 C 347.148438 414.703125 346.578125 414.957031 346.039062 415.28125 C 345.5 415.609375 345.011719 415.996094 344.574219 416.445312 C 343.855469 417.792969 343.058594 419.089844 342.183594 420.335938 L 272.371094 387.796875 L 267.980469 365.324219 Z M 239.304688 372.445312 " fill-opacity="1" fill-rule="nonzero"/></g><path fill="#fdafa0" d="M 175.882812 211.140625 L 151.910156 167.402344 C 148.273438 162.980469 143.832031 159.613281 138.585938 157.3125 C 137.71875 156.917969 136.851562 156.601562 135.957031 156.3125 C 135.5 156.890625 135.054688 157.519531 134.617188 158.203125 C 134.195312 158.820312 133.808594 159.460938 133.460938 160.125 C 135.246094 160.902344 136.882812 161.917969 138.375 163.171875 C 138.742188 164.066406 138.847656 167.640625 136.035156 167.746094 C 133.222656 167.851562 131.515625 164.171875 130.699219 164.011719 C 129.886719 163.855469 128.070312 164.25 128.253906 165.40625 C 128.4375 166.5625 133.117188 171.136719 133.800781 171.6875 C 134.484375 172.242188 143.816406 171.558594 144.316406 172.082031 C 144.816406 172.609375 162.949219 222.652344 166.394531 224.652344 C 169.835938 226.648438 215.125 232.535156 215.125 232.535156 L 229.027344 211.140625 Z M 175.882812 211.140625 " fill-opacity="1" fill-rule="nonzero"/><path fill="#f35f65" d="M 228.792969 211.484375 C 218.976562 216.6875 210.101562 223.183594 202.167969 230.960938 C 209.5 231.957031 215.046875 232.640625 215.046875 232.640625 Z M 228.792969 211.484375 " fill-opacity="1" fill-rule="nonzero"/><path fill="#ffca40" d="M 268.851562 242.550781 C 268.851562 242.550781 260.175781 239.003906 255.445312 242.550781 C 250.714844 246.097656 246.375 255.929688 255.445312 265.390625 C 252.277344 271.996094 249.753906 278.839844 247.875 285.917969 C 233.890625 289.808594 219.855469 284.84375 205.820312 280.664062 C 208.132812 272.988281 200.5625 244.835938 204.898438 235.058594 C 209.238281 225.28125 229.027344 211.140625 229.027344 211.140625 L 233.234375 211.929688 L 240.566406 213.269531 L 261.015625 226.753906 L 263.644531 232.195312 Z M 268.851562 242.550781 " fill-opacity="1" fill-rule="nonzero"/><path fill="#176fb5" d="M 262.542969 321.875 C 259.386719 310.046875 249.136719 298.613281 247.558594 291.914062 C 247.269531 289.925781 247.382812 287.964844 247.902344 286.023438 C 233.890625 289.914062 219.855469 284.945312 205.847656 280.769531 C 205.859375 280.820312 205.859375 280.871094 205.847656 280.925781 C 204.675781 283.746094 203.054688 286.277344 200.984375 288.523438 C 200.984375 288.523438 200.984375 288.679688 196.832031 295.09375 C 189.601562 306.921875 186.054688 376.3125 186.054688 376.3125 C 186.054688 376.3125 192.492188 378.464844 200.640625 381.042969 C 208.789062 383.617188 228.53125 377.335938 228.53125 377.335938 L 225.535156 350.578125 L 235.808594 375.050781 C 235.808594 375.050781 239.675781 378.046875 250.976562 377.179688 C 262.277344 376.3125 275.605469 364.324219 275.605469 364.324219 C 275.605469 364.324219 265.828125 333.597656 262.542969 321.875 Z M 262.542969 321.875 " fill-opacity="1" fill-rule="nonzero"/><path fill="#10446d" d="M 159.796875 159.886719 L 109.855469 174.210938 C 109.628906 174.277344 109.402344 174.296875 109.167969 174.273438 C 108.933594 174.25 108.710938 174.183594 108.503906 174.078125 C 108.292969 173.96875 108.113281 173.828125 107.957031 173.648438 C 107.804688 173.472656 107.6875 173.269531 107.609375 173.050781 C 107.535156 172.828125 107.5 172.597656 107.511719 172.363281 C 107.519531 172.128906 107.574219 171.902344 107.667969 171.6875 C 107.765625 171.476562 107.898438 171.285156 108.066406 171.121094 C 108.238281 170.957031 108.429688 170.832031 108.648438 170.742188 L 156.851562 151.371094 C 157.132812 151.234375 157.421875 151.128906 157.722656 151.050781 C 158.023438 150.976562 158.328125 150.929688 158.636719 150.914062 C 158.945312 150.902344 159.253906 150.917969 159.558594 150.96875 C 159.867188 151.019531 160.164062 151.097656 160.453125 151.210938 C 160.742188 151.320312 161.019531 151.460938 161.28125 151.625 C 161.539062 151.792969 161.78125 151.984375 162.003906 152.203125 C 162.226562 152.421875 162.421875 152.65625 162.59375 152.914062 C 162.765625 153.171875 162.910156 153.445312 163.027344 153.734375 C 163.144531 154.019531 163.230469 154.316406 163.285156 154.621094 C 163.34375 154.925781 163.367188 155.234375 163.359375 155.542969 C 163.351562 155.855469 163.3125 156.160156 163.242188 156.460938 C 163.171875 156.761719 163.070312 157.054688 162.9375 157.335938 C 162.808594 157.617188 162.652344 157.882812 162.464844 158.132812 C 162.28125 158.378906 162.070312 158.605469 161.839844 158.8125 C 161.609375 159.019531 161.359375 159.199219 161.089844 159.351562 C 160.820312 159.507812 160.539062 159.632812 160.242188 159.730469 Z M 159.796875 159.886719 " fill-opacity="1" fill-rule="nonzero"/><path fill="#4cabf4" d="M 211.390625 287.707031 C 210.367188 287.667969 209.398438 287.417969 208.480469 286.960938 C 207.5625 286.5 206.78125 285.875 206.136719 285.078125 L 207.132812 284.238281 C 207.664062 284.878906 208.300781 285.382812 209.050781 285.75 C 209.796875 286.117188 210.585938 286.3125 211.417969 286.339844 Z M 211.390625 287.707031 " fill-opacity="1" fill-rule="nonzero"/><path fill="#4cabf4" d="M 221.539062 289.46875 C 219.699219 289.445312 217.945312 289.042969 216.28125 288.257812 L 216.832031 287.074219 C 218.316406 287.769531 219.875 288.128906 221.511719 288.152344 Z M 221.539062 289.46875 " fill-opacity="1" fill-rule="nonzero"/><path fill="#4cabf4" d="M 231.65625 290.675781 C 230.242188 290.644531 228.828125 290.527344 227.425781 290.335938 L 227.636719 289.046875 C 228.976562 289.230469 230.265625 289.390625 231.734375 289.441406 Z M 231.65625 290.675781 " fill-opacity="1" fill-rule="nonzero"/><path fill="#4cabf4" d="M 238.175781 291.832031 L 237.808594 290.570312 L 242.722656 289.152344 L 243.089844 290.414062 Z M 238.175781 291.832031 " fill-opacity="1" fill-rule="nonzero"/><path fill="#4cabf4" d="M 218.332031 312.808594 C 217.988281 312.191406 217.722656 311.539062 217.539062 310.859375 C 217.351562 310.175781 217.246094 309.484375 217.226562 308.777344 C 217.207031 308.070312 217.269531 307.371094 217.417969 306.679688 C 217.5625 305.988281 217.789062 305.324219 218.09375 304.6875 C 218.503906 303.683594 218.996094 302.71875 219.566406 301.796875 C 220.371094 300.507812 220.976562 299.132812 221.378906 297.667969 C 221.507812 297.246094 221.613281 296.816406 221.695312 296.378906 C 221.613281 296.507812 221.515625 296.621094 221.40625 296.722656 C 220.71875 297.597656 219.84375 298.191406 218.777344 298.507812 C 218.46875 298.601562 218.15625 298.640625 217.835938 298.628906 C 217.515625 298.621094 217.203125 298.558594 216.902344 298.449219 C 216.601562 298.335938 216.328125 298.179688 216.078125 297.980469 C 215.828125 297.777344 215.613281 297.542969 215.441406 297.273438 C 215.175781 296.726562 215.082031 296.152344 215.164062 295.550781 C 215.246094 294.949219 215.488281 294.417969 215.886719 293.960938 C 216.527344 293.105469 217.351562 292.503906 218.359375 292.148438 C 220.054688 291.496094 221.808594 291.265625 223.613281 291.464844 C 224.167969 291.308594 224.585938 291.464844 225.769531 292.148438 C 226.402344 292.515625 227.347656 292.988281 228.765625 293.699219 C 229.449219 293.953125 230.027344 294.355469 230.5 294.910156 C 231.738281 296.460938 230.84375 298.507812 230.082031 299.929688 C 229.980469 300.234375 229.808594 300.492188 229.566406 300.703125 C 229.324219 300.914062 229.042969 301.046875 228.726562 301.101562 C 228.410156 301.15625 228.101562 301.128906 227.800781 301.011719 C 227.503906 300.894531 227.253906 300.710938 227.058594 300.453125 C 225.78125 299.070312 224.90625 297.46875 224.429688 295.644531 C 224.1875 294.917969 223.90625 294.210938 223.589844 293.515625 C 223.511719 293.613281 223.449219 293.71875 223.402344 293.832031 C 223.402344 294.015625 223.402344 294.25 223.402344 294.488281 C 223.253906 295.6875 223.015625 296.871094 222.695312 298.035156 C 222.242188 299.601562 221.59375 301.085938 220.75 302.480469 C 220.207031 303.308594 219.753906 304.1875 219.382812 305.105469 C 218.851562 306.199219 218.585938 307.351562 218.585938 308.5625 C 218.585938 309.777344 218.851562 310.929688 219.382812 312.019531 Z M 224.953125 293.253906 C 225.191406 293.777344 225.429688 294.4375 225.691406 295.222656 C 226.09375 296.78125 226.804688 298.183594 227.820312 299.429688 C 228.292969 299.824219 228.449219 299.796875 228.476562 299.796875 C 228.503906 299.796875 228.765625 299.457031 228.84375 299.296875 C 229.765625 297.589844 229.949219 296.40625 229.398438 295.722656 C 228.84375 295.039062 228.949219 295.277344 228.109375 294.882812 L 225.058594 293.332031 Z M 222.328125 292.699219 C 221.109375 292.710938 219.9375 292.9375 218.804688 293.382812 C 218.03125 293.628906 217.398438 294.074219 216.910156 294.726562 C 216.664062 294.976562 216.5 295.277344 216.425781 295.625 C 216.347656 295.96875 216.371094 296.308594 216.492188 296.644531 C 216.710938 296.925781 216.992188 297.121094 217.332031 297.230469 C 217.671875 297.339844 218.015625 297.347656 218.359375 297.25 C 219.207031 297.007812 219.898438 296.53125 220.433594 295.828125 C 221.128906 295.09375 221.707031 294.28125 222.167969 293.382812 Z M 222.328125 292.699219 " fill-opacity="1" fill-rule="nonzero"/><path fill="#4cabf4" d="M 226.402344 309.445312 L 225.140625 309.074219 C 225.226562 307.964844 224.917969 306.972656 224.21875 306.105469 C 224.054688 305.808594 223.90625 305.5 223.773438 305.1875 C 222.9375 303.101562 222.542969 300.9375 222.589844 298.695312 L 222.351562 293.59375 L 223.667969 293.59375 L 223.902344 298.695312 C 223.847656 300.761719 224.199219 302.761719 224.953125 304.6875 C 224.953125 304.976562 225.246094 305.265625 225.402344 305.554688 C 225.820312 306.109375 226.113281 306.726562 226.289062 307.398438 C 226.460938 308.074219 226.5 308.753906 226.402344 309.445312 Z M 226.402344 309.445312 " fill-opacity="1" fill-rule="nonzero"/><path fill="#4cabf4" d="M 267.851562 365.351562 C 259.9375 347.210938 253.929688 328.460938 249.820312 309.101562 C 249.144531 309.242188 248.460938 309.316406 247.769531 309.316406 C 247.078125 309.320312 246.394531 309.25 245.71875 309.109375 C 245.042969 308.972656 244.386719 308.765625 243.753906 308.492188 C 243.117188 308.21875 242.519531 307.882812 241.953125 307.488281 C 241.386719 307.089844 240.867188 306.640625 240.394531 306.136719 C 239.921875 305.632812 239.503906 305.085938 239.144531 304.5 C 238.78125 303.910156 238.484375 303.289062 238.25 302.640625 C 238.015625 301.988281 237.851562 301.324219 237.753906 300.640625 C 237.683594 300.273438 237.78125 299.957031 238.042969 299.691406 C 238.199219 299.570312 238.375 299.507812 238.570312 299.507812 C 238.765625 299.507812 238.941406 299.570312 239.097656 299.691406 L 239.542969 300.035156 L 239.332031 300.664062 L 239.070312 300.664062 C 239.171875 301.269531 239.332031 301.859375 239.558594 302.429688 C 239.785156 303.003906 240.066406 303.542969 240.402344 304.054688 C 240.742188 304.570312 241.132812 305.039062 241.570312 305.46875 C 242.007812 305.902344 242.484375 306.28125 243.003906 306.609375 C 243.523438 306.941406 244.070312 307.210938 244.644531 307.425781 C 245.21875 307.640625 245.8125 307.792969 246.417969 307.882812 C 247.027344 307.972656 247.636719 308 248.25 307.960938 C 248.863281 307.921875 249.464844 307.820312 250.054688 307.65625 L 250.738281 307.472656 L 250.738281 308.15625 C 254.816406 327.667969 260.84375 346.558594 268.824219 364.824219 Z M 238.148438 300.007812 L 238.726562 300.296875 L 238.308594 300.691406 C 238.398438 300.765625 238.503906 300.804688 238.621094 300.804688 C 238.742188 300.804688 238.847656 300.765625 238.9375 300.691406 C 238.953125 300.621094 238.953125 300.550781 238.9375 300.480469 Z M 238.148438 300.007812 " fill-opacity="1" fill-rule="nonzero"/><path fill="#4cabf4" d="M 225.242188 351.128906 C 223.636719 347.988281 222.710938 344.660156 222.457031 341.144531 L 220.617188 327.765625 L 221.933594 327.578125 L 223.773438 340.984375 C 224.023438 344.320312 224.902344 347.484375 226.402344 350.472656 Z M 225.242188 351.128906 " fill-opacity="1" fill-rule="nonzero"/><path fill="#fdeaea" d="M 263.671875 232.195312 C 259.695312 232.453125 255.742188 232.25 251.8125 231.589844 C 247.882812 230.925781 244.082031 229.824219 240.410156 228.277344 C 239.085938 227.816406 237.871094 227.160156 236.761719 226.308594 C 235.648438 225.453125 234.703125 224.445312 233.917969 223.285156 C 232.996094 221.53125 232.46875 219.664062 232.335938 217.6875 C 232.203125 215.710938 232.476562 213.792969 233.15625 211.929688 L 240.488281 213.269531 L 260.9375 226.753906 Z M 263.671875 232.195312 " fill-opacity="1" fill-rule="nonzero"/><path fill="#fdeaea" d="M 213.335938 250.882812 C 213.335938 251.097656 213.296875 251.308594 213.214844 251.507812 C 213.128906 251.707031 213.011719 251.882812 212.859375 252.035156 C 212.707031 252.1875 212.53125 252.304688 212.332031 252.386719 C 212.132812 252.472656 211.925781 252.511719 211.707031 252.511719 C 211.492188 252.511719 211.285156 252.472656 211.085938 252.386719 C 210.882812 252.304688 210.707031 252.1875 210.554688 252.035156 C 210.402344 251.882812 210.285156 251.707031 210.203125 251.507812 C 210.121094 251.308594 210.078125 251.097656 210.078125 250.882812 C 210.078125 250.667969 210.121094 250.457031 210.203125 250.257812 C 210.285156 250.058594 210.402344 249.882812 210.554688 249.730469 C 210.707031 249.578125 210.882812 249.460938 211.085938 249.378906 C 211.285156 249.292969 211.492188 249.253906 211.707031 249.253906 C 211.925781 249.253906 212.132812 249.292969 212.332031 249.378906 C 212.53125 249.460938 212.707031 249.578125 212.859375 249.730469 C 213.011719 249.882812 213.128906 250.058594 213.214844 250.257812 C 213.296875 250.457031 213.335938 250.667969 213.335938 250.882812 Z M 213.335938 250.882812 " fill-opacity="1" fill-rule="nonzero"/><path fill="#fdeaea" d="M 236.679688 235.347656 C 236.679688 235.574219 236.632812 235.792969 236.546875 236.003906 C 236.460938 236.210938 236.335938 236.398438 236.175781 236.558594 C 236.015625 236.71875 235.832031 236.839844 235.625 236.925781 C 235.414062 237.015625 235.195312 237.058594 234.96875 237.058594 C 234.742188 237.058594 234.523438 237.015625 234.316406 236.925781 C 234.105469 236.839844 233.921875 236.71875 233.761719 236.558594 C 233.601562 236.398438 233.476562 236.210938 233.390625 236.003906 C 233.304688 235.792969 233.261719 235.574219 233.261719 235.347656 C 233.261719 235.121094 233.304688 234.902344 233.390625 234.695312 C 233.476562 234.484375 233.601562 234.300781 233.761719 234.140625 C 233.921875 233.980469 234.105469 233.855469 234.316406 233.769531 C 234.523438 233.683594 234.742188 233.640625 234.96875 233.640625 C 235.195312 233.640625 235.414062 233.683594 235.625 233.769531 C 235.832031 233.855469 236.015625 233.980469 236.175781 234.140625 C 236.335938 234.300781 236.460938 234.484375 236.546875 234.695312 C 236.632812 234.902344 236.679688 235.121094 236.679688 235.347656 Z M 236.679688 235.347656 " fill-opacity="1" fill-rule="nonzero"/><path fill="#fdeaea" d="M 238.675781 270.042969 C 238.675781 270.207031 238.644531 270.367188 238.582031 270.515625 C 238.519531 270.667969 238.429688 270.800781 238.3125 270.917969 C 238.199219 271.035156 238.0625 271.121094 237.914062 271.183594 C 237.761719 271.246094 237.605469 271.277344 237.441406 271.277344 C 237.277344 271.277344 237.117188 271.246094 236.96875 271.183594 C 236.816406 271.121094 236.683594 271.035156 236.566406 270.917969 C 236.449219 270.800781 236.363281 270.667969 236.296875 270.515625 C 236.234375 270.367188 236.203125 270.207031 236.203125 270.042969 C 236.203125 269.878906 236.234375 269.722656 236.296875 269.570312 C 236.363281 269.417969 236.449219 269.285156 236.566406 269.171875 C 236.683594 269.054688 236.816406 268.964844 236.96875 268.902344 C 237.117188 268.839844 237.277344 268.808594 237.441406 268.808594 C 237.605469 268.808594 237.761719 268.839844 237.914062 268.902344 C 238.0625 268.964844 238.199219 269.054688 238.3125 269.171875 C 238.429688 269.285156 238.519531 269.417969 238.582031 269.570312 C 238.644531 269.722656 238.675781 269.878906 238.675781 270.042969 Z M 238.675781 270.042969 " fill-opacity="1" fill-rule="nonzero"/><path fill="#fdeaea" d="M 221.273438 275.25 C 221.308594 275.578125 221.277344 275.902344 221.175781 276.214844 C 221.074219 276.53125 220.910156 276.8125 220.6875 277.058594 C 220.464844 277.308594 220.203125 277.496094 219.902344 277.632812 C 219.597656 277.769531 219.28125 277.835938 218.949219 277.835938 C 218.617188 277.835938 218.300781 277.769531 217.996094 277.632812 C 217.695312 277.496094 217.429688 277.308594 217.210938 277.058594 C 216.988281 276.8125 216.824219 276.53125 216.722656 276.214844 C 216.621094 275.902344 216.585938 275.578125 216.621094 275.25 C 216.652344 274.960938 216.734375 274.6875 216.867188 274.433594 C 216.996094 274.175781 217.171875 273.949219 217.386719 273.757812 C 217.601562 273.5625 217.84375 273.414062 218.113281 273.3125 C 218.382812 273.207031 218.660156 273.15625 218.949219 273.15625 C 219.238281 273.15625 219.515625 273.207031 219.785156 273.3125 C 220.054688 273.414062 220.296875 273.5625 220.511719 273.757812 C 220.726562 273.949219 220.902344 274.175781 221.03125 274.433594 C 221.164062 274.6875 221.246094 274.960938 221.273438 275.25 Z M 221.273438 275.25 " fill-opacity="1" fill-rule="nonzero"/><path fill="#fdeaea" d="M 241.882812 253.539062 C 241.84375 253.765625 241.734375 253.953125 241.558594 254.101562 C 241.382812 254.25 241.179688 254.328125 240.949219 254.328125 C 240.71875 254.328125 240.515625 254.25 240.339844 254.101562 C 240.160156 253.953125 240.054688 253.765625 240.015625 253.539062 C 239.992188 253.398438 240 253.265625 240.035156 253.128906 C 240.074219 252.996094 240.136719 252.875 240.226562 252.769531 C 240.316406 252.664062 240.425781 252.582031 240.550781 252.523438 C 240.675781 252.464844 240.808594 252.433594 240.949219 252.433594 C 241.089844 252.433594 241.222656 252.464844 241.347656 252.523438 C 241.472656 252.582031 241.582031 252.664062 241.671875 252.769531 C 241.761719 252.875 241.824219 252.996094 241.863281 253.128906 C 241.898438 253.265625 241.90625 253.398438 241.882812 253.539062 Z M 241.882812 253.539062 " fill-opacity="1" fill-rule="nonzero"/><path fill="#fdeaea" d="M 218.515625 230.800781 C 218.519531 230.996094 218.484375 231.179688 218.414062 231.359375 C 218.339844 231.539062 218.234375 231.695312 218.101562 231.832031 C 217.964844 231.96875 217.804688 232.074219 217.628906 232.144531 C 217.449219 232.214844 217.261719 232.25 217.070312 232.246094 C 216.878906 232.246094 216.695312 232.210938 216.515625 232.136719 C 216.339844 232.0625 216.183594 231.960938 216.046875 231.824219 C 215.910156 231.6875 215.808594 231.53125 215.734375 231.355469 C 215.660156 231.175781 215.625 230.992188 215.625 230.800781 C 215.625 230.609375 215.660156 230.425781 215.734375 230.25 C 215.808594 230.070312 215.910156 229.914062 216.046875 229.78125 C 216.183594 229.644531 216.339844 229.539062 216.515625 229.464844 C 216.695312 229.394531 216.878906 229.355469 217.070312 229.355469 C 217.261719 229.355469 217.445312 229.394531 217.621094 229.464844 C 217.800781 229.539062 217.957031 229.644531 218.09375 229.78125 C 218.226562 229.914062 218.332031 230.070312 218.40625 230.25 C 218.480469 230.425781 218.515625 230.609375 218.515625 230.800781 Z M 218.515625 230.800781 " fill-opacity="1" fill-rule="nonzero"/><path fill="#fdeaea" d="M 227.53125 255.957031 C 227.53125 256.164062 227.492188 256.367188 227.410156 256.558594 C 227.332031 256.753906 227.21875 256.921875 227.070312 257.070312 C 226.921875 257.21875 226.75 257.332031 226.558594 257.414062 C 226.363281 257.492188 226.164062 257.53125 225.953125 257.53125 C 225.746094 257.53125 225.542969 257.492188 225.351562 257.414062 C 225.15625 257.332031 224.988281 257.21875 224.839844 257.070312 C 224.691406 256.921875 224.578125 256.753906 224.496094 256.558594 C 224.417969 256.367188 224.375 256.164062 224.375 255.957031 C 224.375 255.746094 224.417969 255.546875 224.496094 255.351562 C 224.578125 255.160156 224.691406 254.988281 224.839844 254.839844 C 224.988281 254.691406 225.15625 254.578125 225.351562 254.5 C 225.542969 254.417969 225.746094 254.378906 225.953125 254.378906 C 226.164062 254.378906 226.363281 254.417969 226.558594 254.5 C 226.75 254.578125 226.921875 254.691406 227.070312 254.839844 C 227.21875 254.988281 227.332031 255.160156 227.410156 255.351562 C 227.492188 255.546875 227.53125 255.746094 227.53125 255.957031 Z M 227.53125 255.957031 " fill-opacity="1" fill-rule="nonzero"/><path fill="#4cabf4" d="M 205.976562 377.78125 C 202.855469 377.871094 199.773438 377.550781 196.730469 376.824219 C 193.691406 376.097656 190.796875 374.988281 188.050781 373.5 L 188.710938 372.34375 C 196.59375 376.835938 206.84375 377.597656 220.039062 374.8125 C 220.574219 374.648438 221.046875 374.753906 221.460938 375.128906 C 221.644531 375.316406 221.738281 375.546875 221.738281 375.8125 C 221.738281 376.078125 221.644531 376.304688 221.460938 376.496094 C 221.292969 376.648438 221.09375 376.726562 220.867188 376.726562 C 220.640625 376.726562 220.441406 376.648438 220.277344 376.496094 L 221.222656 375.574219 C 221.132812 375.488281 221.023438 375.441406 220.894531 375.441406 C 220.765625 375.441406 220.65625 375.488281 220.566406 375.574219 C 220.496094 375.636719 220.457031 375.714844 220.457031 375.8125 C 220.457031 375.90625 220.496094 375.984375 220.566406 376.046875 C 220.566406 376.046875 220.566406 376.046875 220.355469 376.046875 C 215.625 377.140625 210.832031 377.71875 205.976562 377.78125 Z M 205.976562 377.78125 " fill-opacity="1" fill-rule="nonzero"/><path fill="#4cabf4" d="M 246.851562 373.789062 C 244.195312 373.808594 241.628906 373.34375 239.148438 372.394531 L 239.621094 371.160156 C 241.789062 371.9375 244.023438 372.371094 246.324219 372.460938 C 248.625 372.550781 250.882812 372.292969 253.105469 371.683594 C 257.605469 370.5 261.871094 368.746094 265.90625 366.429688 C 267.929688 365.296875 269.925781 364.140625 271.898438 362.933594 L 272.582031 364.0625 C 270.609375 365.273438 268.558594 366.453125 266.535156 367.558594 C 262.40625 369.996094 258.023438 371.847656 253.394531 373.105469 C 251.238281 373.589844 249.058594 373.820312 246.851562 373.789062 Z M 246.851562 373.789062 " fill-opacity="1" fill-rule="nonzero"/><path fill="#fdafa0" d="M 129.515625 157.574219 C 125.257812 159.914062 122.917969 165.25 123.972656 166.328125 C 124.390625 166.746094 125.335938 166.328125 125.730469 166.328125 C 128.597656 165.40625 128.359375 161.832031 131.148438 160.542969 C 132.265625 160.058594 133.410156 159.96875 134.589844 160.28125 C 134.871094 159.386719 135.207031 158.507812 135.589844 157.652344 C 135.773438 157.207031 135.957031 156.785156 136.167969 156.390625 C 133.828125 156.089844 131.609375 156.484375 129.515625 157.574219 Z M 129.515625 157.574219 " fill-opacity="1" fill-rule="nonzero"/><path fill="#fdafa0" d="M 134.828125 167.507812 C 132.75 166.800781 131.382812 164.171875 130.699219 164.011719 C 130.015625 163.855469 128.070312 164.25 128.253906 165.40625 C 129.265625 167.203125 130.554688 168.769531 132.121094 170.113281 C 132.722656 168.933594 133.625 168.066406 134.828125 167.507812 Z M 134.828125 167.507812 " fill-opacity="1" fill-rule="nonzero"/><path fill="#fc97c9" d="M 47.667969 214.714844 C 46.679688 214.667969 45.714844 214.804688 44.773438 215.121094 C 43.835938 215.441406 42.984375 215.917969 42.226562 216.554688 C 42.035156 216.683594 41.851562 216.824219 41.679688 216.976562 C 41.503906 217.125 41.339844 217.289062 41.183594 217.460938 C 41.027344 217.628906 40.886719 217.8125 40.753906 218 C 40.621094 218.1875 40.5 218.386719 40.390625 218.589844 C 40.28125 218.792969 40.1875 219.003906 40.101562 219.21875 C 40.019531 219.433594 39.949219 219.652344 39.894531 219.878906 C 39.839844 220.101562 39.796875 220.328125 39.769531 220.558594 C 39.738281 220.785156 39.726562 221.015625 39.726562 221.246094 C 39.726562 221.476562 39.738281 221.707031 39.769531 221.9375 C 39.796875 222.167969 39.839844 222.394531 39.894531 222.617188 C 39.949219 222.839844 40.019531 223.0625 40.101562 223.277344 C 40.1875 223.492188 40.28125 223.703125 40.390625 223.90625 C 40.5 224.109375 40.621094 224.304688 40.753906 224.496094 C 40.886719 224.683594 41.027344 224.863281 41.183594 225.035156 C 41.339844 225.207031 41.503906 225.367188 41.679688 225.519531 C 41.851562 225.671875 42.035156 225.808594 42.226562 225.9375 C 41.203125 225.960938 40.207031 225.792969 39.25 225.429688 C 38.289062 225.066406 37.433594 224.535156 36.679688 223.835938 C 35.597656 222.8125 34.878906 221.578125 34.527344 220.128906 C 33.738281 220.300781 33.007812 220.617188 32.339844 221.070312 C 31.671875 221.523438 31.113281 222.085938 30.664062 222.757812 C 29.75 224.652344 29.285156 226.648438 29.269531 228.75 C 29.269531 228.910156 29.269531 229.09375 29.269531 229.121094 C 28.277344 227.601562 27.558594 225.964844 27.109375 224.210938 C 26.660156 222.457031 26.503906 220.675781 26.640625 218.867188 C 26.828125 215.5625 27.703125 212.453125 29.269531 209.539062 C 29.269531 209.539062 29.609375 209.117188 29.503906 208.984375 C 29.402344 208.855469 26.507812 209.773438 24.851562 211.613281 C 24.046875 212.636719 23.476562 213.78125 23.148438 215.042969 C 22.820312 216.304688 22.757812 217.582031 22.960938 218.867188 C 20.542969 212.480469 20.988281 210.167969 21.988281 209.300781 C 23.171875 208.582031 24.285156 207.765625 25.328125 206.855469 C 26.089844 206.148438 26.484375 205.777344 26.507812 205.542969 C 26.507812 203.125 15.996094 201.074219 15.101562 197.65625 C 14.886719 196.402344 14.914062 195.15625 15.175781 193.910156 C 15.441406 192.667969 15.921875 191.515625 16.625 190.457031 C 16.625 190.457031 14.839844 196.554688 19.492188 196.921875 C 20.910156 197.015625 22.308594 196.894531 23.691406 196.558594 C 25.070312 196.222656 26.371094 195.6875 27.585938 194.949219 C 27.585938 194.949219 19.492188 188.117188 21.832031 182.910156 C 21.832031 182.910156 26.667969 188.851562 30.636719 187.222656 C 29.570312 185.132812 29.023438 182.917969 29.007812 180.574219 C 29.007812 180.308594 29.164062 180.179688 29.269531 180.152344 C 30.082031 179.941406 31.503906 183.175781 33.5 184.726562 C 35.078125 185.960938 37.917969 186.777344 43.382812 185.121094 C 46.554688 187.957031 49.71875 190.816406 52.871094 193.6875 L 50.035156 211.824219 Z M 47.667969 214.714844 " fill-opacity="1" fill-rule="nonzero"/><path fill="#d95092" d="M 66.066406 202.363281 C 66.066406 202.363281 61.046875 215.820312 61.414062 219.050781 C 61.472656 219.523438 61.59375 219.972656 61.78125 220.40625 C 61.96875 220.84375 62.210938 221.242188 62.511719 221.605469 C 62.8125 221.972656 63.15625 222.289062 63.546875 222.554688 C 63.9375 222.824219 64.355469 223.03125 64.804688 223.179688 C 64.804688 223.179688 57.445312 224.441406 55.660156 218.527344 C 53.871094 212.613281 53.871094 215.109375 53.871094 215.109375 C 53.078125 215.644531 52.429688 216.316406 51.921875 217.128906 C 51.414062 217.9375 51.089844 218.816406 50.953125 219.761719 C 50.847656 221.414062 51.277344 222.914062 52.242188 224.257812 C 53.015625 225.234375 53.894531 226.109375 54.871094 226.886719 C 54.871094 226.886719 45.539062 226.726562 44.644531 222.050781 C 43.75 217.371094 50.296875 200.390625 50.296875 200.390625 C 50.296875 200.390625 40.359375 201.652344 38.757812 205.253906 C 38.269531 206.269531 38.023438 207.34375 38.023438 208.472656 C 38.023438 209.601562 38.269531 210.675781 38.757812 211.691406 C 38.757812 211.691406 30.320312 204.175781 35.523438 199.679688 C 37.957031 197.449219 40.585938 195.476562 43.410156 193.765625 L 31.714844 189.484375 C 33.945312 189.453125 36.128906 189.101562 38.257812 188.429688 C 39.742188 187.96875 41.164062 187.355469 42.515625 186.589844 C 41.4375 186.117188 34.632812 182.992188 33.949219 177.234375 C 33.578125 174.34375 34.734375 170.191406 36.050781 170.085938 C 36.445312 170.085938 36.8125 170.375 37.074219 170.691406 C 36.863281 171.800781 36.898438 172.90625 37.183594 174 C 37.46875 175.097656 37.976562 176.078125 38.707031 176.945312 C 39.492188 177.679688 40.386719 177.996094 43.488281 178.445312 C 49.085938 179.230469 50.875 178.890625 54.003906 179.546875 C 56.238281 180.03125 58.339844 180.855469 60.3125 182.019531 C 67.722656 186.75 66.304688 200.96875 66.066406 202.363281 Z M 66.066406 202.363281 " fill-opacity="1" fill-rule="nonzero"/><path fill="#fc97c9" d="M 87.253906 189.0625 C 76.582031 194.003906 73.953125 198.65625 73.558594 201.992188 C 73.492188 205.304688 73.753906 208.589844 74.347656 211.851562 C 73.6875 211.367188 73.074219 210.835938 72.507812 210.246094 C 70.765625 208.539062 69.496094 206.53125 68.695312 204.226562 C 67.488281 205.488281 66.785156 206.988281 66.59375 208.722656 C 66.726562 210.398438 67.050781 212.039062 67.566406 213.636719 L 68.695312 217.238281 C 63.125 213.820312 61.386719 210.429688 60.808594 207.960938 C 60.285156 203.5 60.820312 199.171875 62.414062 194.976562 C 61.105469 195.335938 59.921875 195.941406 58.863281 196.789062 C 57.199219 198.1875 56.09375 199.941406 55.554688 202.046875 C 55.554688 202.046875 53.1875 196.605469 58.523438 190.457031 C 57.117188 190.480469 55.761719 190.222656 54.460938 189.6875 C 53.160156 189.15625 52.015625 188.386719 51.03125 187.378906 C 49.84375 185.984375 49.109375 184.382812 48.824219 182.570312 L 48.824219 177.574219 C 48.960938 178.402344 49.277344 179.15625 49.773438 179.832031 C 50.265625 180.507812 50.890625 181.035156 51.636719 181.414062 C 52.339844 181.730469 53.074219 181.886719 53.84375 181.886719 C 54.613281 181.886719 55.351562 181.730469 56.050781 181.414062 C 54.476562 180.183594 53.125 178.746094 51.988281 177.097656 C 50.855469 175.453125 49.992188 173.675781 49.402344 171.765625 C 49.140625 170.636719 48.667969 168.5625 49.769531 167.613281 C 50.324219 167.1875 50.945312 167.027344 51.636719 167.140625 C 51.628906 168.277344 51.835938 169.375 52.246094 170.433594 C 52.660156 171.488281 53.253906 172.433594 54.027344 173.265625 C 54.855469 174.085938 55.804688 174.722656 56.878906 175.175781 C 57.949219 175.628906 59.066406 175.867188 60.230469 175.894531 C 62.316406 176.027344 64.261719 175.574219 66.066406 174.527344 C 63.753906 172.851562 61.273438 171.476562 58.628906 170.402344 C 58.628906 170.402344 58.390625 170.402344 58.390625 170.402344 C 60.289062 169.894531 62.222656 169.667969 64.1875 169.726562 C 66.152344 169.785156 68.066406 170.125 69.929688 170.742188 C 73.074219 172 75.914062 173.75 78.445312 176 C 79.722656 176.136719 80.933594 176.492188 82.078125 177.070312 C 83.226562 177.652344 84.230469 178.414062 85.097656 179.363281 C 85.636719 180.035156 86.089844 180.757812 86.464844 181.535156 C 86.835938 182.3125 87.117188 183.121094 87.304688 183.960938 C 87.488281 184.804688 87.578125 185.652344 87.570312 186.515625 C 87.5625 187.375 87.457031 188.226562 87.253906 189.0625 Z M 87.253906 189.0625 " fill-opacity="1" fill-rule="nonzero"/><path fill="#d95092" d="M 105.257812 176.628906 C 103.191406 179.46875 100.886719 182.097656 98.34375 184.515625 C 93.480469 189.089844 89.933594 190.851562 87.832031 195.476562 C 87.058594 197.148438 86.585938 198.898438 86.410156 200.734375 L 83.78125 195.476562 C 83.28125 195.355469 82.773438 195.3125 82.257812 195.34375 C 81.746094 195.375 81.246094 195.480469 80.761719 195.65625 C 80.277344 195.835938 79.832031 196.078125 79.417969 196.386719 C 79.007812 196.695312 78.648438 197.058594 78.339844 197.472656 C 77.769531 198.253906 77.429688 199.125 77.320312 200.085938 C 77.210938 201.046875 77.351562 201.972656 77.738281 202.863281 C 76.789062 201.808594 76.117188 200.605469 75.722656 199.242188 C 75.332031 197.882812 75.257812 196.503906 75.503906 195.109375 C 75.742188 194.09375 76.148438 193.152344 76.71875 192.285156 C 77.292969 191.417969 78 190.675781 78.839844 190.0625 C 78.289062 190.28125 77.71875 190.449219 77.136719 190.574219 C 76.554688 190.695312 75.964844 190.765625 75.371094 190.789062 C 74.777344 190.8125 74.183594 190.78125 73.59375 190.703125 C 73.003906 190.625 72.425781 190.5 71.855469 190.320312 C 71.289062 190.144531 70.738281 189.921875 70.207031 189.652344 C 69.675781 189.382812 69.171875 189.070312 68.695312 188.710938 C 68.21875 188.355469 67.773438 187.964844 67.363281 187.53125 C 66.953125 187.101562 66.582031 186.640625 66.25 186.144531 C 68.980469 187.113281 71.769531 187.316406 74.609375 186.75 C 76.292969 186.402344 77.882812 185.796875 79.375 184.9375 C 80.867188 184.082031 82.1875 183.011719 83.335938 181.730469 C 81.097656 181.839844 78.890625 181.640625 76.710938 181.125 C 73.429688 180.464844 70.554688 179.003906 68.089844 176.734375 C 67.277344 175.941406 66.570312 175.066406 65.960938 174.105469 C 66.453125 174.636719 67.007812 175.082031 67.632812 175.449219 C 68.253906 175.8125 68.917969 176.078125 69.617188 176.246094 C 70.320312 176.414062 71.03125 176.476562 71.75 176.4375 C 72.472656 176.394531 73.171875 176.25 73.847656 176 C 75.003906 175.402344 75.878906 174.527344 76.476562 173.371094 C 75.84375 172.765625 70.640625 167.71875 69.824219 164.960938 C 69.824219 164.800781 69.824219 164.644531 69.824219 164.539062 C 70.507812 163.699219 76.1875 169.007812 83.625 169.796875 C 88.566406 170.425781 89.722656 168.535156 94.980469 169.429688 C 97.765625 169.835938 100.394531 170.710938 102.863281 172.054688 C 103.757812 173.554688 104.519531 175.078125 105.257812 176.628906 Z M 105.257812 176.628906 " fill-opacity="1" fill-rule="nonzero"/><path fill="#10446d" d="M 103.050781 179.941406 C 101.890625 176.605469 100.710938 173.265625 99.527344 169.925781 C 100.882812 169.335938 102.304688 169.054688 103.785156 169.085938 C 105.527344 169.148438 107.140625 169.636719 108.621094 170.558594 L 110.121094 174.132812 C 109.472656 175.707031 108.484375 177.019531 107.148438 178.074219 C 105.933594 179.027344 104.566406 179.648438 103.050781 179.941406 Z M 103.050781 179.941406 " fill-opacity="1" fill-rule="nonzero"/><path fill="#f35f65" d="M 202.746094 414.34375 C 201.980469 414.382812 201.253906 414.242188 200.558594 413.929688 C 199.863281 413.613281 199.277344 413.15625 198.800781 412.558594 L 199.855469 411.769531 C 200.347656 412.328125 200.957031 412.707031 201.671875 412.914062 C 202.390625 413.117188 203.109375 413.113281 203.824219 412.898438 C 205.359375 412.402344 206.753906 411.636719 208 410.613281 L 208.765625 411.664062 C 207.367188 412.863281 205.789062 413.738281 204.03125 414.292969 C 203.605469 414.355469 203.175781 414.371094 202.746094 414.34375 Z M 202.746094 414.34375 " fill-opacity="1" fill-rule="nonzero"/><path fill="#f35f65" d="M 256.179688 402.515625 L 256.179688 401.203125 C 256.855469 401.179688 257.492188 401.011719 258.09375 400.699219 C 258.691406 400.386719 259.195312 399.957031 259.597656 399.414062 C 260.027344 398.894531 260.328125 398.308594 260.5 397.65625 C 260.667969 397.003906 260.691406 396.347656 260.570312 395.683594 L 261.882812 395.472656 C 262.03125 396.328125 261.992188 397.171875 261.761719 398.011719 C 261.53125 398.847656 261.132812 399.597656 260.570312 400.257812 C 260.046875 400.945312 259.402344 401.488281 258.632812 401.886719 C 257.863281 402.28125 257.046875 402.492188 256.179688 402.515625 Z M 256.179688 402.515625 " fill-opacity="1" fill-rule="nonzero"/><path fill="#333333" d="M 284.566406 183.175781 C 284.832031 186.117188 283.59375 190.21875 281.152344 198.445312 C 278.523438 207.699219 276.261719 214.636719 272.476562 215.082031 C 270.453125 215.347656 269.324219 213.585938 266.273438 210.984375 C 256.574219 202.703125 251.003906 205.859375 243.773438 198.945312 C 241.671875 196.859375 239.945312 194.5 238.597656 191.859375 C 237.25 189.222656 236.347656 186.441406 235.890625 183.515625 C 235.46875 180.886719 234.257812 173.003906 239.015625 166.5625 C 246.535156 156.601562 262.042969 159.625 262.671875 159.753906 C 264.066406 160.050781 265.429688 160.449219 266.765625 160.953125 C 268.097656 161.457031 269.386719 162.058594 270.625 162.761719 C 271.867188 163.460938 273.046875 164.25 274.167969 165.132812 C 275.289062 166.015625 276.335938 166.976562 277.308594 168.015625 C 278.28125 169.058594 279.171875 170.167969 279.976562 171.34375 C 280.777344 172.519531 281.488281 173.75 282.105469 175.039062 C 282.71875 176.324219 283.234375 177.648438 283.648438 179.011719 C 284.058594 180.375 284.367188 181.761719 284.566406 183.175781 Z M 284.566406 183.175781 " fill-opacity="1" fill-rule="nonzero"/><path fill="#fdafa0" d="M 263.355469 193.609375 L 259.808594 226.28125 C 259.808594 226.28125 248.085938 229.121094 239.910156 223.074219 C 231.734375 217.027344 238.386719 213.480469 238.386719 213.480469 L 247.429688 193.609375 Z M 263.355469 193.609375 " fill-opacity="1" fill-rule="nonzero"/><path fill="#f35f65" d="M 247.429688 193.609375 L 243.644531 201.96875 C 246.167969 204.199219 248.960938 206.019531 252.023438 207.425781 C 255.082031 208.828125 258.285156 209.761719 261.621094 210.222656 L 263.410156 193.609375 Z M 247.429688 193.609375 " fill-opacity="1" fill-rule="nonzero"/><path fill="#fdafa0" d="M 274.84375 183.675781 C 274.84375 184.269531 274.8125 184.867188 274.753906 185.460938 C 274.695312 186.054688 274.609375 186.648438 274.492188 187.234375 C 274.375 187.820312 274.230469 188.398438 274.058594 188.96875 C 273.882812 189.539062 273.683594 190.101562 273.453125 190.65625 C 273.226562 191.207031 272.96875 191.746094 272.6875 192.273438 C 272.40625 192.800781 272.101562 193.3125 271.769531 193.808594 C 271.4375 194.304688 271.082031 194.785156 270.703125 195.246094 C 270.324219 195.707031 269.921875 196.148438 269.5 196.574219 C 269.078125 196.996094 268.636719 197.394531 268.171875 197.773438 C 267.710938 198.152344 267.230469 198.507812 266.734375 198.839844 C 266.238281 199.171875 265.726562 199.480469 265.199219 199.761719 C 264.671875 200.042969 264.132812 200.296875 263.582031 200.527344 C 263.03125 200.753906 262.46875 200.957031 261.894531 201.128906 C 261.324219 201.304688 260.746094 201.449219 260.160156 201.566406 C 259.574219 201.679688 258.984375 201.769531 258.390625 201.828125 C 257.792969 201.886719 257.199219 201.914062 256.601562 201.914062 C 256.003906 201.914062 255.40625 201.886719 254.8125 201.828125 C 254.21875 201.769531 253.628906 201.679688 253.042969 201.566406 C 252.457031 201.449219 251.878906 201.304688 251.304688 201.128906 C 250.734375 200.957031 250.171875 200.753906 249.621094 200.527344 C 249.070312 200.296875 248.527344 200.042969 248.003906 199.761719 C 247.476562 199.480469 246.964844 199.171875 246.46875 198.839844 C 245.96875 198.507812 245.492188 198.152344 245.027344 197.773438 C 244.566406 197.394531 244.125 196.996094 243.703125 196.574219 C 243.28125 196.148438 242.878906 195.707031 242.5 195.246094 C 242.121094 194.785156 241.765625 194.304688 241.433594 193.808594 C 241.101562 193.3125 240.796875 192.800781 240.515625 192.273438 C 240.230469 191.746094 239.976562 191.207031 239.75 190.65625 C 239.519531 190.101562 239.320312 189.539062 239.144531 188.96875 C 238.972656 188.398438 238.828125 187.820312 238.710938 187.234375 C 238.59375 186.648438 238.507812 186.054688 238.449219 185.460938 C 238.390625 184.867188 238.359375 184.269531 238.359375 183.675781 C 238.359375 183.078125 238.390625 182.480469 238.449219 181.886719 C 238.507812 181.292969 238.59375 180.703125 238.710938 180.117188 C 238.828125 179.53125 238.972656 178.949219 239.144531 178.378906 C 239.320312 177.808594 239.519531 177.246094 239.75 176.695312 C 239.976562 176.140625 240.230469 175.601562 240.515625 175.074219 C 240.796875 174.546875 241.101562 174.035156 241.433594 173.539062 C 241.765625 173.042969 242.121094 172.5625 242.5 172.101562 C 242.878906 171.640625 243.28125 171.199219 243.703125 170.777344 C 244.125 170.351562 244.566406 169.953125 245.027344 169.574219 C 245.492188 169.195312 245.96875 168.839844 246.46875 168.507812 C 246.964844 168.175781 247.476562 167.867188 248.003906 167.585938 C 248.527344 167.304688 249.070312 167.050781 249.621094 166.820312 C 250.171875 166.59375 250.734375 166.390625 251.304688 166.21875 C 251.878906 166.042969 252.457031 165.898438 253.042969 165.785156 C 253.628906 165.667969 254.21875 165.578125 254.8125 165.519531 C 255.40625 165.460938 256.003906 165.433594 256.601562 165.433594 C 257.199219 165.433594 257.792969 165.460938 258.390625 165.519531 C 258.984375 165.578125 259.574219 165.667969 260.160156 165.785156 C 260.746094 165.898438 261.324219 166.042969 261.894531 166.21875 C 262.46875 166.390625 263.03125 166.59375 263.582031 166.820312 C 264.132812 167.050781 264.671875 167.304688 265.199219 167.585938 C 265.726562 167.867188 266.238281 168.175781 266.734375 168.507812 C 267.230469 168.839844 267.710938 169.195312 268.171875 169.574219 C 268.636719 169.953125 269.078125 170.351562 269.5 170.777344 C 269.921875 171.199219 270.324219 171.640625 270.703125 172.101562 C 271.082031 172.5625 271.4375 173.042969 271.769531 173.539062 C 272.101562 174.035156 272.40625 174.546875 272.6875 175.074219 C 272.96875 175.601562 273.226562 176.140625 273.453125 176.695312 C 273.683594 177.246094 273.882812 177.808594 274.058594 178.378906 C 274.230469 178.949219 274.375 179.53125 274.492188 180.117188 C 274.609375 180.703125 274.695312 181.292969 274.753906 181.886719 C 274.8125 182.480469 274.84375 183.078125 274.84375 183.675781 Z M 274.84375 183.675781 " fill-opacity="1" fill-rule="nonzero"/><path fill="#fdafa0" d="M 275.5 200.46875 C 275.238281 200.808594 274.949219 201.117188 274.625 201.398438 C 274.304688 201.675781 273.957031 201.921875 273.589844 202.136719 C 273.21875 202.347656 272.832031 202.519531 272.425781 202.65625 C 272.023438 202.792969 271.609375 202.886719 271.1875 202.941406 C 270.761719 202.996094 270.339844 203.007812 269.914062 202.980469 C 269.488281 202.949219 269.070312 202.878906 268.65625 202.765625 C 268.246094 202.65625 267.847656 202.503906 267.46875 202.3125 C 267.085938 202.125 266.726562 201.898438 266.386719 201.636719 C 266.050781 201.375 265.742188 201.085938 265.460938 200.761719 C 265.183594 200.441406 264.9375 200.09375 264.722656 199.726562 C 264.511719 199.355469 264.339844 198.96875 264.203125 198.5625 C 264.070312 198.160156 263.972656 197.746094 263.921875 197.320312 C 263.867188 196.898438 263.855469 196.472656 263.882812 196.046875 C 263.914062 195.621094 263.984375 195.203125 264.097656 194.792969 C 264.210938 194.382812 264.359375 193.984375 264.550781 193.601562 C 264.742188 193.222656 264.96875 192.863281 265.230469 192.523438 C 265.492188 192.1875 265.78125 191.878906 266.105469 191.601562 C 266.425781 191.320312 266.773438 191.074219 267.144531 190.863281 C 267.515625 190.652344 267.902344 190.480469 268.304688 190.34375 C 268.710938 190.207031 269.125 190.113281 269.546875 190.0625 C 269.972656 190.007812 270.394531 189.996094 270.820312 190.027344 C 271.246094 190.058594 271.664062 190.128906 272.078125 190.242188 C 272.488281 190.355469 272.882812 190.503906 273.265625 190.695312 C 273.648438 190.886719 274.007812 191.113281 274.34375 191.375 C 274.679688 191.636719 274.988281 191.925781 275.265625 192.25 C 275.542969 192.570312 275.789062 192.914062 276 193.285156 C 276.210938 193.65625 276.382812 194.042969 276.519531 194.445312 C 276.652344 194.847656 276.746094 195.261719 276.800781 195.683594 C 276.855469 196.105469 276.867188 196.527344 276.835938 196.953125 C 276.808594 197.378906 276.738281 197.796875 276.625 198.207031 C 276.511719 198.617188 276.363281 199.011719 276.171875 199.394531 C 275.984375 199.773438 275.757812 200.132812 275.5 200.46875 Z M 275.5 200.46875 " fill-opacity="1" fill-rule="nonzero"/><path fill="#333333" d="M 247.429688 182.386719 C 247.375 182.523438 247.296875 182.648438 247.195312 182.753906 C 247.09375 182.863281 246.972656 182.945312 246.835938 183.003906 C 246.703125 183.066406 246.558594 183.09375 246.410156 183.097656 C 246.261719 183.097656 246.121094 183.074219 245.980469 183.015625 C 245.855469 182.941406 245.75 182.84375 245.664062 182.722656 C 245.574219 182.605469 245.515625 182.472656 245.480469 182.332031 C 245.445312 182.1875 245.441406 182.042969 245.464844 181.898438 C 245.488281 181.753906 245.535156 181.617188 245.613281 181.492188 C 245.667969 181.355469 245.746094 181.230469 245.847656 181.121094 C 245.949219 181.011719 246.066406 180.929688 246.203125 180.867188 C 246.335938 180.804688 246.480469 180.773438 246.628906 180.765625 C 246.777344 180.761719 246.921875 180.785156 247.058594 180.835938 C 247.183594 180.917969 247.289062 181.015625 247.375 181.140625 C 247.460938 181.261719 247.519531 181.394531 247.554688 181.539062 C 247.589844 181.679688 247.59375 181.828125 247.574219 181.972656 C 247.550781 182.121094 247.503906 182.257812 247.429688 182.386719 Z M 247.429688 182.386719 " fill-opacity="1" fill-rule="nonzero"/><path fill="#333333" d="M 258.074219 186.671875 C 258.019531 186.808594 257.941406 186.933594 257.839844 187.042969 C 257.738281 187.148438 257.621094 187.234375 257.484375 187.296875 C 257.351562 187.355469 257.207031 187.390625 257.058594 187.394531 C 256.910156 187.402344 256.765625 187.378906 256.628906 187.328125 C 256.503906 187.246094 256.398438 187.144531 256.3125 187.023438 C 256.226562 186.902344 256.167969 186.769531 256.132812 186.625 C 256.097656 186.480469 256.09375 186.335938 256.113281 186.1875 C 256.136719 186.042969 256.183594 185.90625 256.257812 185.777344 C 256.3125 185.636719 256.390625 185.515625 256.492188 185.40625 C 256.59375 185.296875 256.710938 185.214844 256.847656 185.152344 C 256.984375 185.089844 257.125 185.054688 257.273438 185.050781 C 257.421875 185.046875 257.566406 185.070312 257.707031 185.121094 C 257.828125 185.199219 257.933594 185.300781 258.019531 185.421875 C 258.105469 185.542969 258.164062 185.675781 258.199219 185.820312 C 258.234375 185.964844 258.238281 186.113281 258.21875 186.257812 C 258.195312 186.40625 258.148438 186.542969 258.074219 186.671875 Z M 258.074219 186.671875 " fill-opacity="1" fill-rule="nonzero"/><path fill="#f35f65" d="M 270.691406 200.152344 C 270.507812 200.152344 270.351562 200.089844 270.226562 199.960938 C 270.097656 199.832031 270.03125 199.679688 270.03125 199.496094 C 270.019531 198.15625 269.570312 196.984375 268.691406 195.976562 C 268.515625 195.730469 268.515625 195.484375 268.691406 195.238281 C 268.75 195.113281 268.839844 195.019531 268.960938 194.957031 C 269.085938 194.890625 269.214844 194.871094 269.347656 194.898438 C 270.683594 195.023438 271.964844 195.367188 273.1875 195.921875 C 273.355469 195.996094 273.472656 196.117188 273.539062 196.285156 C 273.605469 196.453125 273.601562 196.621094 273.527344 196.789062 C 273.449219 196.953125 273.328125 197.066406 273.160156 197.132812 C 272.996094 197.199219 272.828125 197.199219 272.660156 197.132812 C 272.015625 196.839844 271.351562 196.613281 270.664062 196.449219 C 271.171875 197.390625 271.425781 198.398438 271.425781 199.472656 C 271.433594 199.652344 271.375 199.808594 271.25 199.941406 C 271.128906 200.078125 270.976562 200.148438 270.792969 200.152344 Z M 270.691406 200.152344 " fill-opacity="1" fill-rule="nonzero"/><path fill="#333333" d="M 249.136719 190.21875 C 248.632812 190.207031 248.183594 190.039062 247.796875 189.71875 C 247.28125 189.289062 247.007812 188.734375 246.980469 188.0625 C 246.988281 187.777344 247.042969 187.503906 247.140625 187.234375 C 247.238281 186.96875 247.375 186.722656 247.554688 186.5 C 247.730469 186.277344 247.941406 186.085938 248.179688 185.933594 C 248.417969 185.777344 248.675781 185.664062 248.953125 185.59375 L 249.6875 185.460938 C 249.988281 185.460938 250.265625 185.390625 250.53125 185.25 C 250.671875 185.15625 250.828125 185.121094 250.996094 185.148438 C 251.164062 185.175781 251.300781 185.257812 251.40625 185.390625 C 251.515625 185.523438 251.5625 185.675781 251.546875 185.84375 C 251.535156 186.015625 251.46875 186.160156 251.34375 186.277344 C 250.894531 186.585938 250.394531 186.753906 249.847656 186.777344 C 249.652344 186.761719 249.460938 186.761719 249.269531 186.777344 C 249 186.851562 248.773438 186.996094 248.597656 187.214844 C 248.417969 187.429688 248.316406 187.679688 248.296875 187.957031 C 248.304688 188.230469 248.417969 188.449219 248.636719 188.617188 C 248.800781 188.769531 248.992188 188.839844 249.214844 188.824219 C 249.378906 188.824219 249.523438 188.878906 249.644531 188.988281 C 249.769531 189.09375 249.84375 189.226562 249.867188 189.390625 C 249.890625 189.550781 249.855469 189.703125 249.769531 189.839844 C 249.679688 189.976562 249.554688 190.066406 249.398438 190.113281 Z M 249.136719 190.21875 " fill-opacity="1" fill-rule="nonzero"/><path fill="#333333" d="M 249.503906 179.152344 C 248.027344 178.96875 246.574219 178.679688 245.140625 178.285156 C 244.96875 178.242188 244.839844 178.140625 244.75 177.984375 C 244.664062 177.832031 244.644531 177.667969 244.695312 177.496094 C 244.734375 177.320312 244.832031 177.183594 244.988281 177.089844 C 245.140625 176.996094 245.308594 176.972656 245.484375 177.023438 C 246.855469 177.402344 248.25 177.671875 249.664062 177.839844 C 249.839844 177.867188 249.980469 177.949219 250.089844 178.09375 C 250.195312 178.238281 250.238281 178.398438 250.214844 178.574219 C 250.199219 178.753906 250.125 178.902344 249.984375 179.015625 C 249.84375 179.128906 249.683594 179.175781 249.503906 179.152344 Z M 249.503906 179.152344 " fill-opacity="1" fill-rule="nonzero"/><path fill="#333333" d="M 260.726562 183.859375 L 260.570312 183.859375 C 259.1875 183.328125 257.847656 182.703125 256.546875 181.992188 C 256.394531 181.902344 256.292969 181.769531 256.246094 181.59375 C 256.199219 181.417969 256.222656 181.253906 256.3125 181.097656 C 256.402344 180.945312 256.535156 180.839844 256.707031 180.789062 C 256.878906 180.742188 257.046875 180.753906 257.207031 180.835938 C 258.441406 181.527344 259.71875 182.121094 261.042969 182.621094 C 261.207031 182.691406 261.328125 182.804688 261.40625 182.964844 C 261.480469 183.128906 261.492188 183.292969 261.4375 183.464844 C 261.375 183.601562 261.277344 183.703125 261.148438 183.777344 C 261.015625 183.851562 260.875 183.878906 260.726562 183.859375 Z M 260.726562 183.859375 " fill-opacity="1" fill-rule="nonzero"/><path fill="#f35f65" d="M 254.472656 188.773438 C 255.996094 187.433594 260.253906 189.246094 260.332031 190.902344 C 260.332031 191.71875 259.414062 192.398438 258.78125 192.636719 C 258.535156 192.71875 258.285156 192.777344 258.027344 192.804688 C 257.769531 192.835938 257.511719 192.839844 257.253906 192.820312 C 256.996094 192.796875 256.742188 192.746094 256.496094 192.671875 C 256.246094 192.597656 256.007812 192.5 255.78125 192.378906 C 255.554688 192.253906 255.339844 192.109375 255.140625 191.941406 C 254.945312 191.773438 254.765625 191.589844 254.605469 191.386719 C 254.445312 191.183594 254.308594 190.964844 254.191406 190.734375 C 254.078125 190.5 253.984375 190.257812 253.921875 190.007812 C 253.933594 189.519531 254.117188 189.109375 254.472656 188.773438 Z M 254.472656 188.773438 " fill-opacity="0.498" fill-rule="nonzero"/><path fill="#f35f65" d="M 240.253906 183.570312 C 241.433594 182.175781 246.21875 183.570312 246.296875 185.328125 C 246.296875 186.144531 245.21875 186.90625 244.511719 187.195312 C 244.289062 187.285156 244.058594 187.347656 243.824219 187.386719 C 243.589844 187.425781 243.351562 187.4375 243.113281 187.429688 C 242.875 187.417969 242.640625 187.378906 242.410156 187.320312 C 242.179688 187.257812 241.960938 187.175781 241.746094 187.066406 C 241.535156 186.957031 241.335938 186.828125 241.152344 186.679688 C 240.964844 186.527344 240.800781 186.359375 240.648438 186.175781 C 240.5 185.988281 240.371094 185.789062 240.265625 185.574219 C 240.160156 185.363281 240.074219 185.140625 240.015625 184.910156 C 239.894531 184.425781 239.972656 183.980469 240.253906 183.570312 Z M 240.253906 183.570312 " fill-opacity="0.498" fill-rule="nonzero"/><path fill="#fdeaea" d="M 244.800781 192.898438 C 245.011719 192.585938 245.851562 193.164062 248.375 193.609375 C 251.34375 194.109375 252.632812 193.609375 252.84375 194.242188 C 253.054688 194.871094 251.449219 196.605469 249.582031 196.738281 C 246.824219 196.972656 244.484375 193.503906 244.800781 192.898438 Z M 244.800781 192.898438 " fill-opacity="1" fill-rule="nonzero"/><path fill="#333333" d="M 278.679688 211.902344 C 278.734375 212.289062 278.746094 212.675781 278.71875 213.0625 C 278.6875 213.453125 278.617188 213.832031 278.507812 214.203125 C 278.398438 214.578125 278.25 214.933594 278.0625 215.277344 C 277.875 215.617188 277.652344 215.933594 277.398438 216.226562 C 277.140625 216.523438 276.859375 216.785156 276.546875 217.019531 C 276.234375 217.25 275.902344 217.449219 275.546875 217.609375 C 275.191406 217.769531 274.824219 217.890625 274.445312 217.976562 C 274.066406 218.058594 273.679688 218.097656 273.292969 218.097656 C 272.902344 218.097656 272.519531 218.058594 272.136719 217.976562 C 271.757812 217.890625 271.390625 217.769531 271.035156 217.609375 C 270.683594 217.449219 270.347656 217.25 270.035156 217.019531 C 269.726562 216.785156 269.441406 216.523438 269.1875 216.226562 C 268.929688 215.933594 268.710938 215.617188 268.523438 215.277344 C 268.335938 214.933594 268.1875 214.578125 268.074219 214.203125 C 267.964844 213.832031 267.894531 213.453125 267.867188 213.0625 C 267.835938 212.675781 267.847656 212.289062 267.902344 211.902344 C 267.847656 211.519531 267.835938 211.132812 267.867188 210.742188 C 267.894531 210.355469 267.964844 209.972656 268.074219 209.601562 C 268.1875 209.226562 268.335938 208.871094 268.523438 208.53125 C 268.710938 208.1875 268.929688 207.871094 269.1875 207.578125 C 269.441406 207.285156 269.726562 207.019531 270.035156 206.789062 C 270.347656 206.554688 270.683594 206.359375 271.035156 206.199219 C 271.390625 206.035156 271.757812 205.914062 272.136719 205.832031 C 272.519531 205.75 272.902344 205.707031 273.292969 205.707031 C 273.679688 205.707031 274.066406 205.75 274.445312 205.832031 C 274.824219 205.914062 275.191406 206.035156 275.546875 206.199219 C 275.902344 206.359375 276.234375 206.554688 276.546875 206.789062 C 276.859375 207.019531 277.140625 207.285156 277.398438 207.578125 C 277.652344 207.871094 277.875 208.1875 278.0625 208.53125 C 278.25 208.871094 278.398438 209.226562 278.507812 209.601562 C 278.617188 209.972656 278.6875 210.355469 278.71875 210.742188 C 278.746094 211.132812 278.734375 211.519531 278.679688 211.902344 Z M 278.679688 211.902344 " fill-opacity="1" fill-rule="nonzero"/><path fill="#333333" d="M 279.96875 220.789062 C 279.96875 221.191406 279.933594 221.59375 279.863281 221.992188 C 279.796875 222.390625 279.691406 222.777344 279.558594 223.152344 C 279.421875 223.527344 279.257812 223.882812 279.058594 224.21875 C 278.863281 224.554688 278.640625 224.867188 278.390625 225.15625 C 278.140625 225.441406 277.867188 225.699219 277.574219 225.921875 C 277.277344 226.148438 276.96875 226.339844 276.640625 226.492188 C 276.316406 226.648438 275.976562 226.765625 275.628906 226.84375 C 275.285156 226.925781 274.933594 226.964844 274.578125 226.964844 C 274.226562 226.964844 273.875 226.925781 273.527344 226.84375 C 273.179688 226.765625 272.84375 226.648438 272.515625 226.492188 C 272.191406 226.339844 271.878906 226.148438 271.585938 225.921875 C 271.292969 225.699219 271.019531 225.441406 270.769531 225.15625 C 270.519531 224.867188 270.296875 224.554688 270.097656 224.21875 C 269.902344 223.882812 269.738281 223.527344 269.601562 223.152344 C 269.464844 222.777344 269.363281 222.390625 269.292969 221.992188 C 269.226562 221.59375 269.191406 221.191406 269.191406 220.789062 C 269.191406 220.382812 269.226562 219.980469 269.292969 219.582031 C 269.363281 219.183594 269.464844 218.796875 269.601562 218.421875 C 269.738281 218.050781 269.902344 217.691406 270.097656 217.355469 C 270.296875 217.019531 270.519531 216.707031 270.769531 216.417969 C 271.019531 216.132812 271.292969 215.875 271.585938 215.652344 C 271.878906 215.425781 272.191406 215.234375 272.515625 215.082031 C 272.84375 214.925781 273.179688 214.808594 273.527344 214.730469 C 273.875 214.648438 274.226562 214.609375 274.578125 214.609375 C 274.933594 214.609375 275.285156 214.648438 275.628906 214.730469 C 275.976562 214.808594 276.316406 214.925781 276.640625 215.082031 C 276.96875 215.234375 277.277344 215.425781 277.574219 215.652344 C 277.867188 215.875 278.140625 216.132812 278.390625 216.417969 C 278.640625 216.707031 278.863281 217.019531 279.058594 217.355469 C 279.257812 217.691406 279.421875 218.050781 279.558594 218.421875 C 279.691406 218.796875 279.796875 219.183594 279.863281 219.582031 C 279.933594 219.980469 279.96875 220.382812 279.96875 220.789062 Z M 279.96875 220.789062 " fill-opacity="1" fill-rule="nonzero"/><path fill="#333333" d="M 280.230469 228.042969 C 280.230469 228.386719 280.203125 228.730469 280.140625 229.074219 C 280.082031 229.414062 279.996094 229.742188 279.878906 230.0625 C 279.765625 230.382812 279.625 230.6875 279.457031 230.976562 C 279.289062 231.265625 279.097656 231.53125 278.882812 231.777344 C 278.667969 232.023438 278.4375 232.242188 278.1875 232.433594 C 277.933594 232.628906 277.671875 232.789062 277.390625 232.921875 C 277.113281 233.054688 276.824219 233.15625 276.527344 233.222656 C 276.230469 233.292969 275.933594 233.324219 275.632812 233.324219 C 275.328125 233.324219 275.03125 233.292969 274.734375 233.222656 C 274.4375 233.15625 274.148438 233.054688 273.871094 232.921875 C 273.589844 232.789062 273.328125 232.628906 273.074219 232.433594 C 272.824219 232.242188 272.59375 232.023438 272.378906 231.777344 C 272.164062 231.53125 271.972656 231.265625 271.804688 230.976562 C 271.636719 230.6875 271.496094 230.382812 271.382812 230.0625 C 271.265625 229.742188 271.179688 229.414062 271.121094 229.074219 C 271.0625 228.730469 271.03125 228.386719 271.03125 228.042969 C 271.03125 227.695312 271.0625 227.351562 271.121094 227.011719 C 271.179688 226.671875 271.265625 226.339844 271.382812 226.019531 C 271.496094 225.699219 271.636719 225.394531 271.804688 225.105469 C 271.972656 224.816406 272.164062 224.550781 272.378906 224.304688 C 272.59375 224.0625 272.824219 223.839844 273.074219 223.648438 C 273.328125 223.457031 273.589844 223.292969 273.871094 223.160156 C 274.148438 223.027344 274.4375 222.929688 274.734375 222.859375 C 275.03125 222.792969 275.328125 222.757812 275.632812 222.757812 C 275.933594 222.757812 276.230469 222.792969 276.527344 222.859375 C 276.824219 222.929688 277.113281 223.027344 277.390625 223.160156 C 277.671875 223.292969 277.933594 223.457031 278.1875 223.648438 C 278.4375 223.839844 278.667969 224.0625 278.882812 224.304688 C 279.097656 224.550781 279.289062 224.816406 279.457031 225.105469 C 279.625 225.394531 279.765625 225.699219 279.878906 226.019531 C 279.996094 226.339844 280.082031 226.671875 280.140625 227.011719 C 280.203125 227.351562 280.230469 227.695312 280.230469 228.042969 Z M 280.230469 228.042969 " fill-opacity="1" fill-rule="nonzero"/><path fill="#333333" d="M 281.464844 235.085938 C 281.464844 235.433594 281.4375 235.777344 281.378906 236.117188 C 281.320312 236.457031 281.230469 236.789062 281.117188 237.109375 C 281 237.429688 280.859375 237.734375 280.691406 238.019531 C 280.523438 238.308594 280.332031 238.578125 280.117188 238.820312 C 279.90625 239.066406 279.671875 239.285156 279.421875 239.480469 C 279.171875 239.671875 278.90625 239.835938 278.625 239.96875 C 278.347656 240.101562 278.058594 240.199219 277.761719 240.265625 C 277.46875 240.335938 277.167969 240.367188 276.867188 240.367188 C 276.5625 240.367188 276.265625 240.335938 275.96875 240.265625 C 275.671875 240.199219 275.386719 240.101562 275.105469 239.96875 C 274.828125 239.835938 274.5625 239.671875 274.3125 239.480469 C 274.058594 239.285156 273.828125 239.066406 273.613281 238.820312 C 273.398438 238.578125 273.210938 238.308594 273.042969 238.019531 C 272.875 237.734375 272.730469 237.429688 272.617188 237.109375 C 272.5 236.789062 272.414062 236.457031 272.355469 236.117188 C 272.296875 235.777344 272.265625 235.433594 272.265625 235.085938 C 272.265625 234.738281 272.296875 234.394531 272.355469 234.054688 C 272.414062 233.714844 272.5 233.382812 272.617188 233.0625 C 272.730469 232.742188 272.875 232.4375 273.042969 232.152344 C 273.210938 231.863281 273.398438 231.59375 273.613281 231.351562 C 273.828125 231.105469 274.058594 230.886719 274.3125 230.691406 C 274.5625 230.5 274.828125 230.335938 275.105469 230.203125 C 275.386719 230.070312 275.671875 229.972656 275.96875 229.90625 C 276.265625 229.835938 276.5625 229.804688 276.867188 229.804688 C 277.167969 229.804688 277.46875 229.835938 277.761719 229.90625 C 278.058594 229.972656 278.347656 230.070312 278.625 230.203125 C 278.90625 230.335938 279.171875 230.5 279.421875 230.691406 C 279.671875 230.886719 279.90625 231.105469 280.117188 231.351562 C 280.332031 231.59375 280.523438 231.863281 280.691406 232.152344 C 280.859375 232.4375 281 232.742188 281.117188 233.0625 C 281.230469 233.382812 281.320312 233.714844 281.378906 234.054688 C 281.4375 234.394531 281.464844 234.738281 281.464844 235.085938 Z M 281.464844 235.085938 " fill-opacity="1" fill-rule="nonzero"/><path fill="#333333" d="M 281.597656 243.46875 C 281.480469 243.933594 281.285156 244.363281 281.007812 244.753906 C 280.734375 245.144531 280.394531 245.46875 279.996094 245.734375 C 279.597656 245.996094 279.164062 246.179688 278.695312 246.277344 C 278.226562 246.378906 277.757812 246.390625 277.285156 246.3125 C 276.8125 246.234375 276.371094 246.074219 275.957031 245.832031 C 275.546875 245.585938 275.195312 245.277344 274.898438 244.902344 C 274.605469 244.523438 274.386719 244.105469 274.25 243.648438 C 274.113281 243.191406 274.0625 242.722656 274.101562 242.246094 C 274.136719 241.769531 274.261719 241.316406 274.472656 240.886719 C 274.679688 240.457031 274.960938 240.078125 275.3125 239.753906 C 275.664062 239.429688 276.058594 239.179688 276.503906 239.003906 C 276.949219 238.828125 277.414062 238.742188 277.890625 238.738281 C 278.167969 238.777344 278.4375 238.839844 278.699219 238.929688 C 278.960938 239.019531 279.214844 239.132812 279.457031 239.269531 C 279.695312 239.410156 279.921875 239.570312 280.132812 239.75 C 280.34375 239.933594 280.535156 240.132812 280.703125 240.351562 C 280.875 240.570312 281.023438 240.804688 281.152344 241.050781 C 281.277344 241.300781 281.378906 241.558594 281.457031 241.824219 C 281.53125 242.089844 281.582031 242.363281 281.605469 242.640625 C 281.628906 242.917969 281.628906 243.195312 281.597656 243.46875 Z M 281.597656 243.46875 " fill-opacity="1" fill-rule="nonzero"/><path fill="#333333" d="M 251.398438 173.792969 C 254.417969 175.867188 257.730469 177.550781 260.542969 179.890625 C 262.441406 181.46875 264.0625 183.292969 265.410156 185.363281 C 266.753906 187.433594 267.757812 189.65625 268.429688 192.03125 C 271.015625 191.5 273.550781 190.773438 276.023438 189.851562 C 276.570312 189.699219 277.023438 189.410156 277.390625 188.984375 C 277.640625 188.503906 277.753906 187.996094 277.734375 187.457031 C 277.734375 183.410156 277.734375 179.335938 277.550781 175.261719 C 277.597656 173.128906 277.132812 171.113281 276.15625 169.21875 C 275.160156 167.996094 273.984375 166.984375 272.628906 166.179688 C 271.273438 165.375 269.820312 164.828125 268.269531 164.539062 C 264.269531 163.117188 260.152344 162.238281 255.917969 161.910156 C 252.753906 161.730469 249.757812 162.351562 246.929688 163.777344 C 246.25 164.148438 245.609375 164.578125 245.011719 165.066406 C 244.300781 165.617188 244.328125 165.851562 244.695312 166.667969 C 245.367188 168.078125 246.242188 169.351562 247.324219 170.480469 C 248.5625 171.726562 249.921875 172.832031 251.398438 173.792969 Z M 251.398438 173.792969 " fill-opacity="1" fill-rule="nonzero"/><path fill="#333333" d="M 277.078125 251.800781 C 277.667969 253.636719 278.542969 255.324219 279.695312 256.867188 C 280.847656 258.414062 282.214844 259.730469 283.804688 260.816406 C 285.988281 262.472656 290.324219 265.128906 292.953125 262.894531 C 293.109375 262.761719 289.429688 260.765625 289.167969 260.503906 C 287.457031 258.898438 288.351562 256.558594 287.984375 254.511719 C 287.566406 252.902344 286.859375 251.433594 285.863281 250.105469 C 284.867188 248.773438 283.65625 247.683594 282.226562 246.835938 C 280.125 245.363281 277.285156 244.417969 276.972656 247.914062 C 276.769531 249.214844 276.804688 250.511719 277.078125 251.800781 Z M 277.078125 251.800781 " fill-opacity="1" fill-rule="nonzero"/><path fill="#4cabf4" d="M 282.515625 245.941406 C 282.433594 245.609375 282.242188 245.367188 281.9375 245.207031 C 281.625 245.054688 281.308594 245.054688 280.992188 245.207031 C 279.296875 245.886719 277.648438 246.675781 276.050781 247.570312 C 275.910156 247.65625 275.789062 247.765625 275.691406 247.894531 C 275.589844 248.027344 275.519531 248.175781 275.480469 248.332031 C 275.4375 248.492188 275.425781 248.65625 275.449219 248.820312 C 275.472656 248.984375 275.523438 249.136719 275.605469 249.28125 C 275.691406 249.421875 275.796875 249.542969 275.929688 249.640625 C 276.0625 249.738281 276.207031 249.808594 276.367188 249.851562 C 276.527344 249.894531 276.6875 249.902344 276.851562 249.882812 C 277.015625 249.859375 277.167969 249.808594 277.3125 249.726562 L 279.574219 248.570312 C 279.929688 248.375 280.300781 248.199219 280.675781 248.042969 L 281.230469 247.808594 L 281.542969 247.808594 C 281.703125 247.757812 281.847656 247.683594 281.976562 247.578125 C 282.101562 247.472656 282.207031 247.351562 282.289062 247.207031 C 282.371094 247.0625 282.421875 246.90625 282.441406 246.742188 C 282.464844 246.578125 282.453125 246.417969 282.414062 246.257812 Z M 282.515625 245.941406 " fill-opacity="1" fill-rule="nonzero"/><g clip-path="url(#cd1a145b29)"><g clip-path="url(#941ad5655c)"><g clip-path="url(#55927d20d4)"><path fill="#ffffff" d="M 67.464844 233.574219 C 67.96875 234.082031 68.457031 234.601562 68.976562 235.085938 C 69.140625 235.238281 69.386719 235.355469 69.609375 235.382812 C 70.289062 235.476562 70.972656 235.519531 71.777344 235.59375 C 71.238281 236.109375 70.742188 236.535156 70.304688 237.019531 C 70.101562 237.246094 69.941406 237.5625 69.886719 237.863281 C 69.769531 238.492188 69.742188 239.136719 69.664062 239.890625 C 69.152344 239.367188 68.722656 238.878906 68.234375 238.449219 C 68.007812 238.25 67.683594 238.09375 67.378906 238.046875 C 66.742188 237.941406 66.089844 237.917969 65.332031 237.851562 C 65.886719 237.320312 66.390625 236.875 66.847656 236.378906 C 67.03125 236.179688 67.179688 235.890625 67.214844 235.625 C 67.304688 234.957031 67.320312 234.28125 67.363281 233.609375 C 67.398438 233.597656 67.429688 233.585938 67.464844 233.574219 " fill-opacity="1" fill-rule="nonzero"/></g></g></g><g clip-path="url(#5f07270ab5)"><g clip-path="url(#03685450e8)"><g clip-path="url(#9f9e258dc6)"><path fill="#ffffff" d="M 77.820312 255.105469 C 78.320312 255.613281 78.808594 256.132812 79.332031 256.621094 C 79.496094 256.773438 79.742188 256.886719 79.960938 256.914062 C 80.640625 257.007812 81.328125 257.050781 82.128906 257.125 C 81.59375 257.640625 81.097656 258.066406 80.664062 258.546875 C 80.453125 258.777344 80.292969 259.09375 80.238281 259.394531 C 80.125 260.023438 80.097656 260.667969 80.019531 261.425781 C 79.503906 260.898438 79.074219 260.410156 78.589844 259.984375 C 78.359375 259.78125 78.035156 259.628906 77.734375 259.578125 C 77.097656 259.472656 76.445312 259.453125 75.6875 259.382812 C 76.238281 258.851562 76.746094 258.40625 77.199219 257.910156 C 77.386719 257.710938 77.53125 257.421875 77.566406 257.15625 C 77.65625 256.488281 77.671875 255.816406 77.71875 255.140625 C 77.753906 255.128906 77.785156 255.117188 77.820312 255.105469 " fill-opacity="1" fill-rule="nonzero"/></g></g></g><g clip-path="url(#5b061e402f)"><g clip-path="url(#09b28d7a66)"><g clip-path="url(#fbc44b9032)"><path fill="#ffffff" d="M 84.511719 248.4375 C 83.554688 247.457031 82.78125 246.582031 81.910156 245.816406 C 81.496094 245.449219 80.917969 245.164062 80.371094 245.070312 C 79.210938 244.871094 78.023438 244.820312 76.628906 244.683594 C 77.644531 243.695312 78.5625 242.863281 79.394531 241.957031 C 79.710938 241.613281 79.957031 241.121094 80.03125 240.664062 C 80.226562 239.480469 80.308594 238.277344 80.457031 236.863281 C 81.433594 237.84375 82.25 238.738281 83.148438 239.539062 C 83.515625 239.871094 84.039062 240.125 84.527344 240.203125 C 85.71875 240.386719 86.933594 240.441406 88.363281 240.570312 C 87.371094 241.519531 86.476562 242.277344 85.707031 243.144531 C 85.3125 243.582031 85.011719 244.195312 84.90625 244.769531 C 84.695312 245.90625 84.644531 247.074219 84.511719 248.4375 " fill-opacity="1" fill-rule="nonzero"/></g></g></g><g clip-path="url(#785f711e26)"><g clip-path="url(#f80e68a981)"><g clip-path="url(#a062f90e7e)"><path fill="#ffffff" d="M 63.964844 248.617188 C 64.515625 249.171875 65.003906 249.539062 65.335938 250.015625 C 66.121094 251.148438 67.234375 251.476562 68.546875 251.476562 C 69.089844 251.472656 69.628906 251.5625 70.339844 251.628906 C 69.546875 252.390625 68.816406 253.035156 68.164062 253.753906 C 67.875 254.074219 67.652344 254.523438 67.574219 254.945312 C 67.410156 255.878906 67.355469 256.832031 67.238281 257.953125 C 66.496094 257.207031 65.820312 256.574219 65.199219 255.894531 C 64.789062 255.441406 64.324219 255.234375 63.714844 255.207031 C 62.816406 255.164062 61.917969 255.050781 60.855469 254.949219 C 61.675781 254.160156 62.414062 253.496094 63.089844 252.765625 C 63.351562 252.488281 63.558594 252.089844 63.617188 251.71875 C 63.777344 250.738281 63.84375 249.746094 63.964844 248.617188 " fill-opacity="1" fill-rule="nonzero"/></g></g></g></svg>