<svg xmlns="http://www.w3.org/2000/svg" xmlns:xlink="http://www.w3.org/1999/xlink" width="500" zoomAndPan="magnify" viewBox="0 0 375 374.999991" height="500" preserveAspectRatio="xMidYMid meet" version="1.0"><defs><clipPath id="510d7fc85e"><path d="M 437.804688 64.738281 L 59.148438 443.394531 L -62.828125 321.417969 L 315.828125 -57.238281 Z M 437.804688 64.738281 " clip-rule="nonzero"/></clipPath><clipPath id="7129558c4a"><path d="M 437.804688 64.738281 L 59.148438 443.394531 L -62.828125 321.417969 L 315.828125 -57.238281 Z M 437.804688 64.738281 " clip-rule="nonzero"/></clipPath><clipPath id="a910952a51"><path d="M 437.804688 64.738281 L 59.148438 443.394531 L -62.828125 321.417969 L 315.828125 -57.238281 Z M 437.804688 64.738281 " clip-rule="nonzero"/></clipPath><clipPath id="b1008866e6"><path d="M 90.253906 253.6875 C 108.769531 235.171875 166.125 219.085938 197.902344 210.242188 C 204.777344 208.324219 210.660156 206.652344 214.933594 205.355469 C 239.710938 197.683594 246.457031 183.621094 255.121094 165.785156 C 262.984375 149.621094 271.894531 131.289062 296.667969 112.839844 C 314.875 99.214844 329.742188 103.0625 344.054688 106.847656 C 354.273438 109.390625 363.878906 111.933594 374.53125 108.34375 C 402.589844 98.753906 403.511719 79.859375 404.433594 61.585938 C 404.863281 52.480469 405.292969 43.871094 408.882812 36.316406 L 409.503906 36.5625 C 406.039062 43.996094 405.605469 52.605469 405.175781 61.585938 C 404.191406 80.046875 403.207031 99.25 374.777344 108.964844 C 364.003906 112.675781 354.214844 110.070312 343.929688 107.464844 C 329.742188 103.804688 315.058594 100.023438 297.101562 113.394531 C 272.453125 131.722656 263.601562 149.992188 255.804688 166.097656 C 247.445312 183.375 240.203125 198.175781 215.183594 205.972656 C 210.96875 207.335938 205.023438 208.941406 198.148438 210.859375 C 164.207031 220.386719 101.152344 238.082031 87.59375 257.960938 C 84.683594 262.234375 81.589844 266.570312 78.367188 271.152344 C 63.695312 291.898438 46.980469 315.429688 42.773438 338.84375 C 42.34375 341.261719 41.972656 343.613281 41.539062 346.03125 C 37.953125 366.46875 34.367188 387.53125 20.066406 401.835938 C 19.878906 402.019531 19.691406 402.207031 19.445312 402.453125 L 18.949219 401.957031 C 19.136719 401.773438 19.320312 401.585938 19.507812 401.402344 C 33.6875 387.21875 37.273438 366.285156 40.734375 345.96875 C 41.167969 343.550781 41.535156 341.199219 41.96875 338.78125 C 46.234375 315.183594 62.953125 291.648438 77.625 270.777344 C 80.84375 266.195312 83.941406 261.863281 86.851562 257.589844 C 87.902344 256.289062 88.957031 254.988281 90.253906 253.6875 Z M 97.996094 247.433594 C 96.015625 249.539062 93.972656 251.707031 91.867188 253.933594 C 70.503906 276.539062 46.355469 302.175781 39.179688 334.136719 C 38.003906 339.277344 37.078125 344.789062 36.152344 350.054688 C 32.9375 368.265625 29.660156 387.15625 17.089844 399.726562 C 17.027344 399.789062 16.964844 399.851562 16.90625 399.914062 L 17.398438 400.410156 C 17.460938 400.347656 17.523438 400.285156 17.585938 400.222656 C 30.34375 387.46875 33.617188 368.574219 36.832031 350.238281 C 37.761719 344.976562 38.75 339.523438 39.863281 334.320312 C 46.972656 302.546875 71.125 276.910156 92.363281 254.429688 C 94.46875 252.203125 96.511719 250.035156 98.492188 247.929688 C 98.863281 247.558594 99.171875 247.25 99.542969 246.875 C 121.15625 225.265625 187.925781 201.875 213.378906 192.902344 L 213.691406 192.839844 C 237.289062 184.609375 246.203125 170.613281 256.417969 154.449219 C 265.582031 139.957031 275.917969 123.671875 299.019531 107.265625 C 315.800781 95.3125 329.925781 98.664062 343.679688 101.890625 C 353.777344 104.3125 363.320312 106.542969 373.660156 102.894531 C 400.480469 93.300781 400.84375 74.222656 401.148438 55.699219 C 401.269531 46.90625 401.453125 38.542969 404.484375 31.542969 L 403.863281 31.296875 C 400.769531 38.480469 400.648438 46.78125 400.464844 55.640625 C 400.164062 73.914062 399.800781 92.742188 373.289062 102.148438 C 363.132812 105.863281 353.652344 103.566406 343.617188 101.210938 C 329.800781 97.921875 315.492188 94.507812 298.460938 106.707031 C 275.300781 123.175781 264.898438 139.648438 255.675781 154.078125 C 245.523438 170.179688 236.730469 184.054688 213.316406 192.222656 L 213.007812 192.28125 C 187.550781 201.253906 120.660156 224.644531 98.925781 246.378906 C 98.617188 246.691406 98.242188 247.0625 97.996094 247.433594 Z M 36.207031 329.550781 C 34.410156 336.425781 33.300781 343.734375 32.0625 350.796875 C 29.21875 368.140625 26.316406 386.039062 14.613281 397.867188 L 15.109375 398.363281 C 26.996094 386.351562 29.964844 368.386719 32.804688 350.921875 C 33.917969 343.859375 35.15625 336.550781 36.886719 329.734375 C 47.527344 288.730469 79.914062 262.046875 108.523438 238.515625 L 109.390625 237.773438 C 134.039062 217.339844 187.546875 189.238281 212.199219 179.582031 C 234.371094 170.917969 244.898438 157.914062 257.035156 142.929688 C 267.4375 130.046875 279.261719 115.496094 300.8125 101.007812 C 316.480469 90.542969 330.046875 93.460938 343.246094 96.253906 C 353.15625 98.363281 362.511719 100.410156 372.359375 96.761719 C 397.9375 87.292969 397.621094 67.40625 397.304688 49.753906 C 397.054688 41.203125 396.925781 33.152344 399.527344 26.585938 L 398.90625 26.339844 C 396.246094 32.964844 396.371094 41.140625 396.5625 49.753906 C 396.878906 68.027344 397.195312 86.921875 372.046875 96.203125 C 362.449219 99.730469 353.15625 97.746094 343.304688 95.695312 C 330.046875 92.84375 316.234375 89.925781 300.378906 100.574219 C 278.765625 115.125 266.878906 129.738281 256.476562 142.617188 C 244.402344 157.542969 233.9375 170.484375 211.949219 179.089844 C 187.300781 188.742188 133.726562 216.90625 109.019531 237.402344 L 108.152344 238.144531 C 97.003906 247.308594 85.238281 256.96875 74.464844 267.742188 C 57.4375 284.648438 42.761719 304.402344 36.207031 329.550781 Z M 33.230469 324.964844 C 30.941406 332.957031 29.707031 341.75 28.46875 350.175781 C 25.9375 367.828125 23.527344 384.492188 12.441406 395.945312 L 12.9375 396.441406 C 18.015625 391.242188 21.730469 384.429688 24.328125 375.507812 C 26.679688 367.582031 27.914062 358.785156 29.089844 350.300781 C 30.324219 341.875 31.5625 333.203125 33.851562 325.214844 C 47.152344 278.945312 82.265625 252.753906 120.164062 227.742188 C 130.199219 221.179688 141.285156 212.945312 152.988281 204.339844 C 173.609375 189.171875 194.914062 173.445312 210.582031 166.574219 C 231.082031 157.601562 243.28125 145.773438 257.402344 132.027344 C 269.042969 120.632812 282.355469 107.691406 302.546875 95.0625 C 317.039062 86.023438 330.046875 88.503906 342.683594 90.863281 C 352.410156 92.539062 361.578125 94.277344 370.933594 90.75 C 395.148438 81.40625 394.089844 61.398438 393.152344 43.742188 C 392.714844 35.503906 392.339844 27.699219 394.445312 21.628906 L 393.824219 21.378906 C 391.597656 27.574219 392.035156 35.441406 392.410156 43.742188 C 393.28125 61.210938 394.34375 80.972656 370.558594 90.132812 C 361.394531 93.597656 352.285156 91.921875 342.621094 90.058594 C 329.921875 87.636719 316.664062 85.15625 302.050781 94.316406 C 281.796875 107.007812 268.484375 119.949219 256.78125 131.40625 C 242.726562 145.089844 230.648438 156.917969 210.210938 165.832031 C 194.542969 172.703125 173.175781 188.488281 152.492188 203.71875 C 140.789062 212.328125 129.703125 220.5625 119.667969 227.125 C 101.152344 239.320312 83.253906 251.765625 68.269531 266.75 C 52.664062 282.601562 40.097656 301.117188 33.230469 324.964844 Z M 30.316406 320.316406 C 27.53125 329.300781 26.296875 339.210938 25.125 348.8125 C 22.960938 366.21875 20.988281 382.695312 10.273438 393.777344 L 10.769531 394.273438 C 21.605469 382.941406 23.644531 366.402344 25.804688 348.875 C 26.980469 339.273438 28.152344 329.421875 31 320.503906 C 47.953125 265.875 91.613281 238.695312 131.125 217.527344 C 147.664062 208.675781 161.347656 194.988281 174.660156 181.800781 C 186.488281 169.972656 197.695312 158.886719 209.152344 153.253906 C 227.671875 144.28125 241.914062 133.257812 257.027344 121.621094 C 270.835938 110.90625 285.140625 99.824219 304.527344 88.742188 C 317.71875 81.128906 330.105469 83.242188 342.0625 85.164062 C 351.726562 86.78125 360.832031 88.207031 369.753906 84.742188 C 392.667969 75.582031 390.804688 55.386719 389.246094 37.609375 C 388.5 29.679688 387.878906 22.246094 389.613281 16.671875 L 388.929688 16.484375 C 387.136719 22.121094 387.882812 29.679688 388.566406 37.671875 C 390.121094 55.203125 391.863281 75.148438 369.441406 84.058594 C 360.710938 87.589844 351.664062 86.097656 342.125 84.484375 C 329.984375 82.496094 317.53125 80.449219 304.152344 88.125 C 284.707031 99.265625 270.402344 110.351562 256.589844 121.0625 C 241.605469 132.703125 227.363281 143.722656 208.84375 152.699219 C 197.261719 158.332031 186.054688 169.539062 174.164062 181.304688 C 160.976562 194.492188 147.226562 208.117188 130.878906 216.90625 C 108.769531 228.730469 85.359375 242.472656 66.039062 261.792969 C 50.679688 277.148438 37.867188 296.039062 30.316406 320.316406 Z M 27.402344 315.671875 C 24.125 325.519531 23.011719 336.421875 21.964844 347.011719 C 20.238281 364.359375 18.507812 380.710938 8.230469 391.734375 L 8.726562 392.230469 C 19.191406 381.019531 20.855469 364.605469 22.707031 347.136719 C 23.820312 336.605469 24.929688 325.707031 28.148438 315.917969 C 37.304688 288.171875 52.597656 265.566406 74.890625 246.742188 C 96.070312 228.910156 120.78125 216.839844 142.085938 207.433594 C 161.84375 198.707031 172.800781 182.292969 182.523438 167.863281 C 190.136719 156.53125 197.320312 145.757812 207.722656 140.183594 C 222.03125 132.445312 235.46875 124.214844 249.652344 115.484375 C 267.117188 104.710938 285.136719 93.628906 306.445312 82.613281 C 318.335938 76.421875 330.105469 78.035156 341.378906 79.652344 C 350.980469 80.957031 360.027344 82.199219 368.511719 78.671875 C 390.066406 69.632812 387.394531 48.386719 385.21875 31.351562 C 384.289062 23.855469 383.355469 16.730469 384.65625 11.714844 L 384.035156 11.589844 C 382.734375 16.730469 383.667969 23.855469 384.601562 31.472656 C 386.773438 49.128906 389.382812 69.199219 368.140625 78.050781 C 359.839844 81.515625 350.796875 80.273438 341.316406 78.96875 C 329.855469 77.417969 318.023438 75.742188 305.949219 81.992188 C 284.644531 93.011719 266.621094 104.09375 249.15625 114.863281 C 234.972656 123.59375 221.597656 131.890625 207.226562 139.566406 C 196.761719 145.199219 189.519531 156.035156 181.777344 167.492188 C 172.121094 181.859375 161.222656 198.210938 141.589844 206.8125 C 120.222656 216.28125 95.449219 228.292969 74.207031 246.1875 C 70.554688 249.21875 67.148438 252.378906 63.929688 255.597656 C 47.210938 272.5625 35.136719 292.320312 27.402344 315.671875 Z M 24.429688 311.085938 C 20.714844 321.617188 19.792969 333.570312 18.867188 345.03125 C 17.449219 362.4375 16.089844 378.789062 6 389.75 L 6.433594 390.183594 C 16.648438 379.097656 18.066406 362.558594 19.425781 345.09375 C 20.347656 333.632812 21.335938 321.738281 24.988281 311.273438 C 48.5625 243.699219 100.339844 216.585938 152.800781 197.339844 C 175.097656 189.171875 181.78125 171.332031 187.660156 155.664062 C 192.054688 143.957031 196.136719 132.933594 205.984375 127.050781 C 235.214844 109.59375 272.5 92.511719 308.050781 76.542969 C 318.644531 71.777344 329.609375 72.957031 340.199219 74.136719 C 349.863281 75.257812 358.972656 76.1875 367.085938 72.660156 C 387.460938 63.6875 383.859375 42.253906 380.941406 24.96875 C 379.699219 17.660156 378.644531 11.277344 379.511719 6.816406 L 378.890625 6.695312 C 378.027344 11.277344 379.082031 17.660156 380.324219 25.09375 C 383.117188 42.128906 386.71875 63.316406 366.773438 72.105469 C 358.785156 75.632812 349.800781 74.574219 340.199219 73.519531 C 329.484375 72.335938 318.457031 71.09375 307.679688 75.921875 C 272.066406 91.953125 234.84375 108.972656 205.550781 126.492188 C 195.519531 132.4375 191.371094 143.648438 186.914062 155.414062 C 181.097656 171.023438 174.476562 188.675781 152.425781 196.71875 C 120.097656 208.601562 88.078125 223.394531 62.625 248.84375 C 46.960938 264.757812 33.523438 284.886719 24.429688 311.085938 Z M 21.578125 306.378906 C 17.429688 317.585938 16.691406 330.347656 15.890625 342.800781 C 14.785156 360.265625 13.738281 376.804688 3.890625 387.644531 L 4.324219 388.078125 C 14.355469 377.054688 15.402344 360.390625 16.511719 342.800781 C 17.3125 330.472656 18.050781 317.710938 22.136719 306.5625 C 49.609375 231.371094 106.46875 204.632812 163.820312 187.0625 C 188.410156 179.574219 190.511719 160.621094 192.363281 143.894531 C 193.722656 131.632812 195.019531 120.046875 204.554688 113.734375 C 225.117188 100.113281 257.941406 88.601562 286.929688 78.453125 C 295.105469 75.609375 302.785156 72.886719 309.90625 70.222656 C 319.011719 66.820312 329.046875 67.691406 338.773438 68.5 C 348.746094 69.433594 358.101562 70.117188 365.90625 66.527344 C 385.042969 57.554688 380.265625 34.816406 376.789062 18.214844 C 375.363281 11.460938 374.121094 5.640625 374.617188 1.796875 L 373.933594 1.738281 C 373.441406 5.699219 374.617188 11.585938 376.109375 18.402344 C 379.707031 35.746094 384.238281 57.242188 365.59375 65.972656 C 357.914062 69.5625 348.683594 68.753906 338.835938 67.941406 C 329.109375 67.132812 318.949219 66.261719 309.660156 69.730469 C 302.539062 72.390625 294.796875 75.050781 286.679688 77.957031 C 257.632812 88.167969 224.742188 99.742188 204.183594 113.359375 C 194.398438 119.800781 193.101562 131.628906 191.742188 144.019531 C 189.828125 161.300781 187.792969 179.203125 163.636719 186.628906 C 127.15625 197.824219 90.796875 212.742188 62.128906 241.410156 C 45.59375 257.820312 31.664062 278.816406 21.578125 306.378906 Z M 18.601562 301.792969 C 14.085938 313.621094 13.46875 327.25 12.917969 340.445312 C 12.121094 358.097656 11.382812 374.699219 1.660156 385.535156 L 2.09375 385.96875 C 12 374.945312 12.675781 358.160156 13.539062 340.445312 C 14.152344 327.3125 14.703125 313.746094 19.160156 301.976562 C 33.269531 264.941406 54.136719 236.886719 83.117188 216.082031 C 106.589844 199.304688 134.832031 187.175781 174.597656 177.03125 C 201.292969 170.164062 198.992188 151.144531 196.757812 132.808594 C 195.140625 119.800781 193.648438 107.535156 203 100.660156 C 221.703125 86.917969 260.105469 77.269531 290.890625 69.535156 C 298.507812 67.617188 305.632812 65.824219 311.765625 64.15625 C 319.320312 62.050781 328.179688 62.613281 336.726562 63.109375 C 347.195312 63.671875 356.984375 64.296875 364.664062 60.457031 C 382.6875 51.480469 376.730469 28.1875 372.449219 11.152344 C 370.898438 5.140625 369.597656 0 369.71875 -3.222656 L 369.101562 -3.222656 C 368.976562 0.125 370.34375 5.328125 371.832031 11.398438 C 376.113281 28.1875 381.882812 51.171875 364.417969 59.960938 C 356.984375 63.675781 347.132812 63.113281 336.851562 62.492188 C 328.300781 61.992188 319.382812 61.492188 311.703125 63.597656 C 305.570312 65.265625 298.445312 67.0625 290.828125 68.976562 C 259.921875 76.710938 221.519531 86.359375 202.691406 100.226562 C 193.15625 107.285156 194.644531 119.800781 196.199219 132.996094 C 198.4375 151.082031 200.671875 169.792969 174.535156 176.472656 C 134.644531 186.742188 106.339844 198.808594 82.808594 215.648438 C 75.066406 221.160156 67.882812 227.226562 61.257812 233.855469 C 42.992188 252.121094 28.9375 274.601562 18.601562 301.792969 Z M 15.628906 297.207031 C 10.738281 309.65625 10.308594 324.089844 9.945312 338.089844 C 9.515625 355.867188 9.027344 372.714844 -0.570312 383.554688 L -0.136719 383.988281 C 9.585938 372.902344 10.011719 355.992188 10.5625 338.089844 C 10.929688 324.214844 11.296875 309.71875 16.183594 297.394531 C 31.964844 257.320312 54.8125 227.285156 86.027344 205.863281 C 111.417969 188.40625 143.003906 176.027344 185.496094 166.875 C 195.097656 164.835938 201.226562 161.183594 204.382812 155.667969 C 209.585938 146.628906 205.429688 134.050781 201.335938 121.910156 C 196.746094 108.03125 192.34375 94.957031 201.449219 87.46875 C 219.964844 72.171875 272.429688 64.203125 303.832031 59.445312 C 307.363281 58.886719 310.707031 58.394531 313.558594 57.898438 C 319.320312 56.972656 326.132812 57.222656 333.378906 57.535156 C 344.34375 57.972656 355.679688 58.410156 363.359375 54.324219 C 380.453125 45.164062 372.765625 20.132812 367.738281 3.59375 C 366.25 -1.363281 364.949219 -5.636719 364.699219 -8.238281 L 364.019531 -8.179688 C 364.207031 -5.515625 365.570312 -1.179688 367.058594 3.777344 C 372.019531 20.132812 379.523438 44.851562 362.988281 53.828125 C 355.496094 57.851562 344.160156 57.414062 333.316406 56.976562 C 326.070312 56.664062 319.257812 56.414062 313.433594 57.402344 C 310.523438 57.835938 307.238281 58.390625 303.710938 58.949219 C 272.304688 63.707031 219.652344 71.738281 201.074219 87.09375 C 200.640625 87.40625 200.269531 87.777344 199.898438 88.148438 C 192.035156 96.011719 196.253906 108.773438 200.78125 122.21875 C 204.75 134.238281 208.902344 146.6875 203.828125 155.484375 C 200.792969 160.75 194.722656 164.339844 185.371094 166.378906 C 142.757812 175.53125 111.105469 187.972656 85.652344 205.492188 C 76.613281 211.683594 68.3125 218.617188 60.636719 226.296875 C 41.75 245.058594 26.890625 268.59375 15.628906 297.207031 Z M 205.730469 111.566406 C 212.300781 124.082031 219.121094 137.089844 214.789062 145.886719 C 212.25 151.027344 206.304688 154.371094 196.457031 156.164062 C 150.558594 164.382812 116.304688 176.824219 88.683594 195.148438 C 55.242188 217.4375 30.351562 249.265625 12.777344 292.621094 C 7.453125 305.628906 7.335938 320.867188 7.21875 335.609375 C 7.039062 353.636719 6.921875 370.609375 -2.554688 381.570312 L -2.058594 381.941406 C 7.539062 370.855469 7.71875 353.699219 7.835938 335.609375 C 7.957031 320.867188 8.136719 305.691406 13.332031 292.808594 C 30.847656 249.636719 55.613281 217.808594 89.058594 195.644531 C 116.554688 177.316406 150.742188 164.941406 196.578125 156.78125 C 206.675781 154.988281 212.746094 151.523438 215.34375 146.195312 C 219.800781 137.152344 212.921875 123.957031 206.289062 111.253906 C 198.664062 96.695312 191.472656 82.941406 199.707031 74.707031 C 199.832031 74.582031 199.957031 74.457031 200.082031 74.332031 C 207.757812 67.152344 226.773438 61.148438 255.019531 56.949219 C 276.699219 53.734375 300.980469 52.007812 315.539062 51.828125 C 318.699219 51.769531 322.476562 51.957031 326.503906 52.140625 C 338.644531 52.640625 353.882812 53.269531 362.242188 48.378906 C 378.40625 38.78125 368.113281 10.53125 362.59375 -4.773438 C 361.230469 -8.488281 360.175781 -11.402344 359.804688 -13.257812 L 359.183594 -13.136719 C 359.621094 -11.214844 360.675781 -8.304688 362.039062 -4.585938 C 367.496094 10.40625 377.664062 38.410156 361.808594 47.695312 C 353.636719 52.523438 338.519531 51.898438 326.441406 51.335938 C 322.414062 51.148438 318.636719 50.960938 315.414062 51.085938 C 291.253906 51.449219 218.160156 56.5 199.585938 73.714844 C 199.460938 73.839844 199.335938 73.960938 199.210938 74.085938 C 190.667969 82.753906 198.292969 97.4375 205.730469 111.566406 Z M 198.03125 60.765625 C 189.175781 70.117188 200.207031 85.980469 210.867188 101.222656 C 219.980469 114.296875 229.398438 127.804688 225.625 136.535156 C 223.457031 141.429688 217.511719 144.523438 207.292969 146.070312 C 158.109375 153.359375 121.320312 165.734375 91.59375 184.929688 C 55.921875 207.957031 29.171875 241.648438 9.800781 288.035156 C 4.167969 301.601562 4.238281 317.644531 4.367188 333.132812 C 4.496094 351.34375 4.628906 368.5625 -4.722656 379.523438 L -4.351562 379.898438 C 5.183594 368.75 5.054688 351.40625 4.925781 333.070312 C 4.855469 317.644531 4.726562 301.664062 10.359375 288.222656 C 29.667969 242.019531 56.355469 208.390625 91.902344 185.363281 C 121.566406 166.230469 158.296875 153.917969 207.355469 146.625 C 217.824219 145.082031 223.953125 141.800781 226.183594 136.722656 C 230.082031 127.617188 221.03125 114.605469 211.363281 100.851562 C 200.890625 85.792969 190.042969 70.242188 198.464844 61.199219 C 207.503906 51.539062 237.855469 47.464844 255.078125 45.859375 C 281.464844 43.390625 306.800781 43.957031 317.207031 45.695312 C 327.183594 47.371094 350.90625 48.683594 360.878906 42.304688 C 376.980469 31.90625 361.914062 -2.109375 356.273438 -14.808594 C 355.652344 -16.171875 355.09375 -17.351562 354.785156 -18.15625 L 354.167969 -17.90625 C 354.539062 -17.039062 355.035156 -15.925781 355.652344 -14.5625 C 361.234375 -1.921875 376.113281 31.65625 360.507812 41.6875 C 351.589844 47.507812 329.90625 47.125 317.332031 44.953125 C 295.339844 41.289062 214.996094 43.675781 198.339844 60.332031 C 198.277344 60.519531 198.15625 60.644531 198.03125 60.765625 Z M 198.03125 60.765625 " clip-rule="nonzero"/></clipPath><linearGradient x1="-1.062857" gradientTransform="matrix(-0.619224, 0.619224, -0.619685, -0.619685, 447.118224, 73.434538)" y1="117.318001" x2="604.533496" gradientUnits="userSpaceOnUse" y2="117.318001" id="f25f6c0860"><stop stop-opacity="1" stop-color="rgb(0%, 59.199524%, 93.299866%)" offset="0"/><stop stop-opacity="1" stop-color="rgb(0.457764%, 59.19342%, 93.331909%)" offset="0.00390625"/><stop stop-opacity="1" stop-color="rgb(0.915527%, 59.187317%, 93.363953%)" offset="0.0078125"/><stop stop-opacity="1" stop-color="rgb(1.597595%, 59.178162%, 93.411255%)" offset="0.0117188"/><stop stop-opacity="1" stop-color="rgb(2.281189%, 59.170532%, 93.460083%)" offset="0.015625"/><stop stop-opacity="1" stop-color="rgb(2.964783%, 59.161377%, 93.507385%)" offset="0.0195312"/><stop stop-opacity="1" stop-color="rgb(3.648376%, 59.153748%, 93.556213%)" offset="0.0234375"/><stop stop-opacity="1" stop-color="rgb(4.33197%, 59.144592%, 93.605042%)" offset="0.0273438"/><stop stop-opacity="1" stop-color="rgb(5.015564%, 59.135437%, 93.65387%)" offset="0.03125"/><stop stop-opacity="1" stop-color="rgb(5.699158%, 59.126282%, 93.701172%)" offset="0.0351562"/><stop stop-opacity="1" stop-color="rgb(6.382751%, 59.118652%, 93.75%)" offset="0.0390625"/><stop stop-opacity="1" stop-color="rgb(7.066345%, 59.109497%, 93.797302%)" offset="0.0429687"/><stop stop-opacity="1" stop-color="rgb(7.749939%, 59.101868%, 93.84613%)" offset="0.046875"/><stop stop-opacity="1" stop-color="rgb(8.433533%, 59.092712%, 93.893433%)" offset="0.0507812"/><stop stop-opacity="1" stop-color="rgb(9.117126%, 59.083557%, 93.942261%)" offset="0.0546875"/><stop stop-opacity="1" stop-color="rgb(9.80072%, 59.074402%, 93.991089%)" offset="0.0585937"/><stop stop-opacity="1" stop-color="rgb(10.484314%, 59.066772%, 94.039917%)" offset="0.0625"/><stop stop-opacity="1" stop-color="rgb(11.167908%, 59.057617%, 94.087219%)" offset="0.0664062"/><stop stop-opacity="1" stop-color="rgb(11.851501%, 59.049988%, 94.136047%)" offset="0.0703125"/><stop stop-opacity="1" stop-color="rgb(12.535095%, 59.040833%, 94.18335%)" offset="0.0742188"/><stop stop-opacity="1" stop-color="rgb(13.218689%, 59.031677%, 94.232178%)" offset="0.078125"/><stop stop-opacity="1" stop-color="rgb(13.902283%, 59.022522%, 94.281006%)" offset="0.0820312"/><stop stop-opacity="1" stop-color="rgb(14.585876%, 59.014893%, 94.329834%)" offset="0.0859375"/><stop stop-opacity="1" stop-color="rgb(15.26947%, 59.005737%, 94.377136%)" offset="0.0898438"/><stop stop-opacity="1" stop-color="rgb(15.953064%, 58.998108%, 94.425964%)" offset="0.09375"/><stop stop-opacity="1" stop-color="rgb(16.636658%, 58.988953%, 94.473267%)" offset="0.0976563"/><stop stop-opacity="1" stop-color="rgb(17.320251%, 58.979797%, 94.522095%)" offset="0.101563"/><stop stop-opacity="1" stop-color="rgb(18.003845%, 58.970642%, 94.569397%)" offset="0.105469"/><stop stop-opacity="1" stop-color="rgb(18.687439%, 58.963013%, 94.618225%)" offset="0.109375"/><stop stop-opacity="1" stop-color="rgb(19.371033%, 58.953857%, 94.667053%)" offset="0.113281"/><stop stop-opacity="1" stop-color="rgb(20.054626%, 58.946228%, 94.715881%)" offset="0.117188"/><stop stop-opacity="1" stop-color="rgb(20.73822%, 58.937073%, 94.763184%)" offset="0.121094"/><stop stop-opacity="1" stop-color="rgb(21.421814%, 58.927917%, 94.812012%)" offset="0.125"/><stop stop-opacity="1" stop-color="rgb(22.105408%, 58.918762%, 94.859314%)" offset="0.128906"/><stop stop-opacity="1" stop-color="rgb(22.789001%, 58.911133%, 94.908142%)" offset="0.132812"/><stop stop-opacity="1" stop-color="rgb(23.472595%, 58.901978%, 94.955444%)" offset="0.136719"/><stop stop-opacity="1" stop-color="rgb(24.156189%, 58.894348%, 95.004272%)" offset="0.140625"/><stop stop-opacity="1" stop-color="rgb(24.839783%, 58.885193%, 95.053101%)" offset="0.144531"/><stop stop-opacity="1" stop-color="rgb(25.523376%, 58.876038%, 95.101929%)" offset="0.148438"/><stop stop-opacity="1" stop-color="rgb(26.20697%, 58.866882%, 95.149231%)" offset="0.152344"/><stop stop-opacity="1" stop-color="rgb(26.890564%, 58.859253%, 95.198059%)" offset="0.15625"/><stop stop-opacity="1" stop-color="rgb(27.574158%, 58.850098%, 95.245361%)" offset="0.160156"/><stop stop-opacity="1" stop-color="rgb(28.257751%, 58.842468%, 95.294189%)" offset="0.164062"/><stop stop-opacity="1" stop-color="rgb(28.941345%, 58.833313%, 95.341492%)" offset="0.167969"/><stop stop-opacity="1" stop-color="rgb(29.624939%, 58.824158%, 95.39032%)" offset="0.171875"/><stop stop-opacity="1" stop-color="rgb(30.308533%, 58.815002%, 95.439148%)" offset="0.175781"/><stop stop-opacity="1" stop-color="rgb(30.992126%, 58.807373%, 95.487976%)" offset="0.179687"/><stop stop-opacity="1" stop-color="rgb(31.67572%, 58.798218%, 95.535278%)" offset="0.183594"/><stop stop-opacity="1" stop-color="rgb(32.359314%, 58.790588%, 95.584106%)" offset="0.1875"/><stop stop-opacity="1" stop-color="rgb(33.042908%, 58.781433%, 95.631409%)" offset="0.191406"/><stop stop-opacity="1" stop-color="rgb(33.726501%, 58.772278%, 95.680237%)" offset="0.195312"/><stop stop-opacity="1" stop-color="rgb(34.410095%, 58.763123%, 95.727539%)" offset="0.199219"/><stop stop-opacity="1" stop-color="rgb(35.093689%, 58.755493%, 95.776367%)" offset="0.203125"/><stop stop-opacity="1" stop-color="rgb(35.777283%, 58.746338%, 95.825195%)" offset="0.207031"/><stop stop-opacity="1" stop-color="rgb(36.460876%, 58.738708%, 95.874023%)" offset="0.210938"/><stop stop-opacity="1" stop-color="rgb(37.14447%, 58.729553%, 95.921326%)" offset="0.214844"/><stop stop-opacity="1" stop-color="rgb(37.828064%, 58.720398%, 95.970154%)" offset="0.21875"/><stop stop-opacity="1" stop-color="rgb(38.511658%, 58.711243%, 96.017456%)" offset="0.222656"/><stop stop-opacity="1" stop-color="rgb(39.195251%, 58.703613%, 96.066284%)" offset="0.226562"/><stop stop-opacity="1" stop-color="rgb(39.878845%, 58.694458%, 96.113586%)" offset="0.230469"/><stop stop-opacity="1" stop-color="rgb(40.562439%, 58.686829%, 96.162415%)" offset="0.234375"/><stop stop-opacity="1" stop-color="rgb(41.246033%, 58.677673%, 96.211243%)" offset="0.238281"/><stop stop-opacity="1" stop-color="rgb(41.929626%, 58.668518%, 96.260071%)" offset="0.242188"/><stop stop-opacity="1" stop-color="rgb(42.61322%, 58.659363%, 96.307373%)" offset="0.246094"/><stop stop-opacity="1" stop-color="rgb(43.296814%, 58.651733%, 96.356201%)" offset="0.25"/><stop stop-opacity="1" stop-color="rgb(43.980408%, 58.642578%, 96.403503%)" offset="0.253906"/><stop stop-opacity="1" stop-color="rgb(44.664001%, 58.634949%, 96.452332%)" offset="0.257812"/><stop stop-opacity="1" stop-color="rgb(45.347595%, 58.625793%, 96.499634%)" offset="0.261719"/><stop stop-opacity="1" stop-color="rgb(46.031189%, 58.616638%, 96.548462%)" offset="0.265625"/><stop stop-opacity="1" stop-color="rgb(46.714783%, 58.607483%, 96.59729%)" offset="0.269531"/><stop stop-opacity="1" stop-color="rgb(47.398376%, 58.599854%, 96.646118%)" offset="0.273437"/><stop stop-opacity="1" stop-color="rgb(48.08197%, 58.590698%, 96.69342%)" offset="0.277344"/><stop stop-opacity="1" stop-color="rgb(48.765564%, 58.583069%, 96.742249%)" offset="0.28125"/><stop stop-opacity="1" stop-color="rgb(49.449158%, 58.573914%, 96.789551%)" offset="0.285156"/><stop stop-opacity="1" stop-color="rgb(50.132751%, 58.564758%, 96.838379%)" offset="0.289062"/><stop stop-opacity="1" stop-color="rgb(50.816345%, 58.555603%, 96.885681%)" offset="0.292969"/><stop stop-opacity="1" stop-color="rgb(51.499939%, 58.547974%, 96.934509%)" offset="0.296875"/><stop stop-opacity="1" stop-color="rgb(52.183533%, 58.538818%, 96.983337%)" offset="0.300781"/><stop stop-opacity="1" stop-color="rgb(52.867126%, 58.531189%, 97.032166%)" offset="0.304687"/><stop stop-opacity="1" stop-color="rgb(53.55072%, 58.522034%, 97.079468%)" offset="0.308594"/><stop stop-opacity="1" stop-color="rgb(54.234314%, 58.512878%, 97.128296%)" offset="0.3125"/><stop stop-opacity="1" stop-color="rgb(54.917908%, 58.503723%, 97.175598%)" offset="0.316406"/><stop stop-opacity="1" stop-color="rgb(55.601501%, 58.496094%, 97.224426%)" offset="0.320312"/><stop stop-opacity="1" stop-color="rgb(56.285095%, 58.486938%, 97.271729%)" offset="0.324219"/><stop stop-opacity="1" stop-color="rgb(56.968689%, 58.479309%, 97.320557%)" offset="0.328125"/><stop stop-opacity="1" stop-color="rgb(57.652283%, 58.470154%, 97.369385%)" offset="0.332031"/><stop stop-opacity="1" stop-color="rgb(58.335876%, 58.460999%, 97.418213%)" offset="0.335938"/><stop stop-opacity="1" stop-color="rgb(59.01947%, 58.451843%, 97.465515%)" offset="0.339844"/><stop stop-opacity="1" stop-color="rgb(59.703064%, 58.444214%, 97.514343%)" offset="0.34375"/><stop stop-opacity="1" stop-color="rgb(60.386658%, 58.435059%, 97.561646%)" offset="0.347656"/><stop stop-opacity="1" stop-color="rgb(61.070251%, 58.427429%, 97.610474%)" offset="0.351562"/><stop stop-opacity="1" stop-color="rgb(61.753845%, 58.418274%, 97.659302%)" offset="0.355469"/><stop stop-opacity="1" stop-color="rgb(62.437439%, 58.409119%, 97.70813%)" offset="0.359375"/><stop stop-opacity="1" stop-color="rgb(63.121033%, 58.399963%, 97.755432%)" offset="0.363281"/><stop stop-opacity="1" stop-color="rgb(63.804626%, 58.392334%, 97.80426%)" offset="0.367188"/><stop stop-opacity="1" stop-color="rgb(64.48822%, 58.383179%, 97.851562%)" offset="0.371094"/><stop stop-opacity="1" stop-color="rgb(65.171814%, 58.375549%, 97.900391%)" offset="0.375"/><stop stop-opacity="1" stop-color="rgb(65.855408%, 58.366394%, 97.947693%)" offset="0.378906"/><stop stop-opacity="1" stop-color="rgb(66.539001%, 58.357239%, 97.996521%)" offset="0.382812"/><stop stop-opacity="1" stop-color="rgb(67.222595%, 58.348083%, 98.045349%)" offset="0.386719"/><stop stop-opacity="1" stop-color="rgb(67.906189%, 58.340454%, 98.094177%)" offset="0.390625"/><stop stop-opacity="1" stop-color="rgb(68.588257%, 58.331299%, 98.141479%)" offset="0.394531"/><stop stop-opacity="1" stop-color="rgb(69.271851%, 58.323669%, 98.190308%)" offset="0.398438"/><stop stop-opacity="1" stop-color="rgb(69.955444%, 58.314514%, 98.23761%)" offset="0.402344"/><stop stop-opacity="1" stop-color="rgb(70.639038%, 58.305359%, 98.286438%)" offset="0.40625"/><stop stop-opacity="1" stop-color="rgb(71.322632%, 58.296204%, 98.33374%)" offset="0.410156"/><stop stop-opacity="1" stop-color="rgb(72.006226%, 58.288574%, 98.382568%)" offset="0.414062"/><stop stop-opacity="1" stop-color="rgb(72.689819%, 58.279419%, 98.431396%)" offset="0.417969"/><stop stop-opacity="1" stop-color="rgb(73.373413%, 58.27179%, 98.480225%)" offset="0.421875"/><stop stop-opacity="1" stop-color="rgb(74.057007%, 58.262634%, 98.527527%)" offset="0.425781"/><stop stop-opacity="1" stop-color="rgb(74.740601%, 58.253479%, 98.576355%)" offset="0.429687"/><stop stop-opacity="1" stop-color="rgb(75.424194%, 58.244324%, 98.623657%)" offset="0.433594"/><stop stop-opacity="1" stop-color="rgb(76.107788%, 58.236694%, 98.672485%)" offset="0.4375"/><stop stop-opacity="1" stop-color="rgb(76.791382%, 58.227539%, 98.719788%)" offset="0.441406"/><stop stop-opacity="1" stop-color="rgb(77.474976%, 58.21991%, 98.768616%)" offset="0.445312"/><stop stop-opacity="1" stop-color="rgb(78.158569%, 58.210754%, 98.817444%)" offset="0.449219"/><stop stop-opacity="1" stop-color="rgb(78.842163%, 58.201599%, 98.866272%)" offset="0.453125"/><stop stop-opacity="1" stop-color="rgb(79.525757%, 58.192444%, 98.913574%)" offset="0.457031"/><stop stop-opacity="1" stop-color="rgb(80.209351%, 58.184814%, 98.962402%)" offset="0.460937"/><stop stop-opacity="1" stop-color="rgb(80.892944%, 58.175659%, 99.009705%)" offset="0.464844"/><stop stop-opacity="1" stop-color="rgb(81.576538%, 58.16803%, 99.058533%)" offset="0.46875"/><stop stop-opacity="1" stop-color="rgb(82.260132%, 58.158875%, 99.105835%)" offset="0.472656"/><stop stop-opacity="1" stop-color="rgb(82.943726%, 58.149719%, 99.154663%)" offset="0.476562"/><stop stop-opacity="1" stop-color="rgb(83.627319%, 58.140564%, 99.203491%)" offset="0.480469"/><stop stop-opacity="1" stop-color="rgb(84.310913%, 58.132935%, 99.252319%)" offset="0.484375"/><stop stop-opacity="1" stop-color="rgb(84.994507%, 58.123779%, 99.299622%)" offset="0.488281"/><stop stop-opacity="1" stop-color="rgb(85.678101%, 58.11615%, 99.34845%)" offset="0.492187"/><stop stop-opacity="1" stop-color="rgb(86.361694%, 58.106995%, 99.395752%)" offset="0.496094"/><stop stop-opacity="1" stop-color="rgb(87.045288%, 58.097839%, 99.44458%)" offset="0.5"/><stop stop-opacity="1" stop-color="rgb(87.728882%, 58.088684%, 99.491882%)" offset="0.503906"/><stop stop-opacity="1" stop-color="rgb(88.412476%, 58.081055%, 99.54071%)" offset="0.507812"/><stop stop-opacity="1" stop-color="rgb(89.096069%, 58.071899%, 99.589539%)" offset="0.511719"/><stop stop-opacity="1" stop-color="rgb(89.779663%, 58.06427%, 99.638367%)" offset="0.515625"/><stop stop-opacity="1" stop-color="rgb(90.463257%, 58.055115%, 99.685669%)" offset="0.519531"/><stop stop-opacity="1" stop-color="rgb(91.146851%, 58.045959%, 99.734497%)" offset="0.523437"/><stop stop-opacity="1" stop-color="rgb(91.830444%, 58.036804%, 99.781799%)" offset="0.527344"/><stop stop-opacity="1" stop-color="rgb(92.514038%, 58.029175%, 99.830627%)" offset="0.53125"/><stop stop-opacity="1" stop-color="rgb(93.197632%, 58.02002%, 99.87793%)" offset="0.535156"/><stop stop-opacity="1" stop-color="rgb(93.881226%, 58.01239%, 99.926758%)" offset="0.539063"/><stop stop-opacity="1" stop-color="rgb(94.233704%, 57.958984%, 99.917603%)" offset="0.542969"/><stop stop-opacity="1" stop-color="rgb(94.586182%, 57.907104%, 99.908447%)" offset="0.546875"/><stop stop-opacity="1" stop-color="rgb(93.971252%, 57.725525%, 99.729919%)" offset="0.550781"/><stop stop-opacity="1" stop-color="rgb(93.357849%, 57.543945%, 99.551392%)" offset="0.554688"/><stop stop-opacity="1" stop-color="rgb(92.74292%, 57.362366%, 99.372864%)" offset="0.558594"/><stop stop-opacity="1" stop-color="rgb(92.129517%, 57.182312%, 99.194336%)" offset="0.5625"/><stop stop-opacity="1" stop-color="rgb(91.514587%, 57.000732%, 99.015808%)" offset="0.566406"/><stop stop-opacity="1" stop-color="rgb(90.901184%, 56.820679%, 98.83728%)" offset="0.570312"/><stop stop-opacity="1" stop-color="rgb(90.287781%, 56.639099%, 98.658752%)" offset="0.574219"/><stop stop-opacity="1" stop-color="rgb(89.674377%, 56.45752%, 98.480225%)" offset="0.578125"/><stop stop-opacity="1" stop-color="rgb(89.059448%, 56.27594%, 98.301697%)" offset="0.582031"/><stop stop-opacity="1" stop-color="rgb(88.446045%, 56.095886%, 98.123169%)" offset="0.585938"/><stop stop-opacity="1" stop-color="rgb(87.831116%, 55.914307%, 97.944641%)" offset="0.589844"/><stop stop-opacity="1" stop-color="rgb(87.217712%, 55.734253%, 97.766113%)" offset="0.59375"/><stop stop-opacity="1" stop-color="rgb(86.602783%, 55.552673%, 97.587585%)" offset="0.597656"/><stop stop-opacity="1" stop-color="rgb(85.98938%, 55.371094%, 97.409058%)" offset="0.601562"/><stop stop-opacity="1" stop-color="rgb(85.375977%, 55.189514%, 97.23053%)" offset="0.605469"/><stop stop-opacity="1" stop-color="rgb(84.762573%, 55.00946%, 97.052002%)" offset="0.609375"/><stop stop-opacity="1" stop-color="rgb(84.147644%, 54.827881%, 96.873474%)" offset="0.613281"/><stop stop-opacity="1" stop-color="rgb(83.534241%, 54.647827%, 96.694946%)" offset="0.617187"/><stop stop-opacity="1" stop-color="rgb(82.919312%, 54.466248%, 96.514893%)" offset="0.621094"/><stop stop-opacity="1" stop-color="rgb(82.305908%, 54.284668%, 96.336365%)" offset="0.625"/><stop stop-opacity="1" stop-color="rgb(81.692505%, 54.103088%, 96.157837%)" offset="0.628906"/><stop stop-opacity="1" stop-color="rgb(81.079102%, 53.923035%, 95.979309%)" offset="0.632813"/><stop stop-opacity="1" stop-color="rgb(80.464172%, 53.741455%, 95.800781%)" offset="0.636719"/><stop stop-opacity="1" stop-color="rgb(79.850769%, 53.561401%, 95.622253%)" offset="0.640625"/><stop stop-opacity="1" stop-color="rgb(79.23584%, 53.379822%, 95.443726%)" offset="0.644531"/><stop stop-opacity="1" stop-color="rgb(78.622437%, 53.198242%, 95.265198%)" offset="0.648438"/><stop stop-opacity="1" stop-color="rgb(78.007507%, 53.016663%, 95.08667%)" offset="0.652344"/><stop stop-opacity="1" stop-color="rgb(77.394104%, 52.836609%, 94.908142%)" offset="0.65625"/><stop stop-opacity="1" stop-color="rgb(76.780701%, 52.655029%, 94.729614%)" offset="0.660156"/><stop stop-opacity="1" stop-color="rgb(76.167297%, 52.474976%, 94.551086%)" offset="0.664062"/><stop stop-opacity="1" stop-color="rgb(75.552368%, 52.293396%, 94.372559%)" offset="0.667969"/><stop stop-opacity="1" stop-color="rgb(74.938965%, 52.111816%, 94.194031%)" offset="0.671875"/><stop stop-opacity="1" stop-color="rgb(74.324036%, 51.930237%, 94.015503%)" offset="0.675781"/><stop stop-opacity="1" stop-color="rgb(73.710632%, 51.750183%, 93.836975%)" offset="0.679687"/><stop stop-opacity="1" stop-color="rgb(73.097229%, 51.568604%, 93.658447%)" offset="0.683594"/><stop stop-opacity="1" stop-color="rgb(72.483826%, 51.38855%, 93.479919%)" offset="0.6875"/><stop stop-opacity="1" stop-color="rgb(71.868896%, 51.20697%, 93.301392%)" offset="0.691406"/><stop stop-opacity="1" stop-color="rgb(71.255493%, 51.025391%, 93.122864%)" offset="0.695312"/><stop stop-opacity="1" stop-color="rgb(70.640564%, 50.843811%, 92.944336%)" offset="0.699219"/><stop stop-opacity="1" stop-color="rgb(70.027161%, 50.663757%, 92.765808%)" offset="0.703125"/><stop stop-opacity="1" stop-color="rgb(69.412231%, 50.482178%, 92.58728%)" offset="0.707031"/><stop stop-opacity="1" stop-color="rgb(68.798828%, 50.302124%, 92.408752%)" offset="0.710937"/><stop stop-opacity="1" stop-color="rgb(68.185425%, 50.120544%, 92.230225%)" offset="0.714844"/><stop stop-opacity="1" stop-color="rgb(67.572021%, 49.938965%, 92.051697%)" offset="0.71875"/><stop stop-opacity="1" stop-color="rgb(66.957092%, 49.757385%, 91.873169%)" offset="0.722656"/><stop stop-opacity="1" stop-color="rgb(66.343689%, 49.577332%, 91.694641%)" offset="0.726562"/><stop stop-opacity="1" stop-color="rgb(65.72876%, 49.395752%, 91.516113%)" offset="0.730469"/><stop stop-opacity="1" stop-color="rgb(65.115356%, 49.215698%, 91.337585%)" offset="0.734375"/><stop stop-opacity="1" stop-color="rgb(64.500427%, 49.034119%, 91.159058%)" offset="0.738281"/><stop stop-opacity="1" stop-color="rgb(63.887024%, 48.852539%, 90.98053%)" offset="0.742188"/><stop stop-opacity="1" stop-color="rgb(63.273621%, 48.670959%, 90.802002%)" offset="0.746094"/><stop stop-opacity="1" stop-color="rgb(62.660217%, 48.490906%, 90.623474%)" offset="0.75"/><stop stop-opacity="1" stop-color="rgb(62.045288%, 48.309326%, 90.444946%)" offset="0.753906"/><stop stop-opacity="1" stop-color="rgb(61.431885%, 48.129272%, 90.266418%)" offset="0.757812"/><stop stop-opacity="1" stop-color="rgb(60.816956%, 47.947693%, 90.087891%)" offset="0.761719"/><stop stop-opacity="1" stop-color="rgb(60.203552%, 47.766113%, 89.909363%)" offset="0.765625"/><stop stop-opacity="1" stop-color="rgb(59.590149%, 47.584534%, 89.730835%)" offset="0.769531"/><stop stop-opacity="1" stop-color="rgb(58.976746%, 47.40448%, 89.552307%)" offset="0.773437"/><stop stop-opacity="1" stop-color="rgb(58.361816%, 47.2229%, 89.373779%)" offset="0.777344"/><stop stop-opacity="1" stop-color="rgb(57.748413%, 47.042847%, 89.195251%)" offset="0.78125"/><stop stop-opacity="1" stop-color="rgb(57.133484%, 46.861267%, 89.016724%)" offset="0.785156"/><stop stop-opacity="1" stop-color="rgb(56.520081%, 46.679688%, 88.838196%)" offset="0.789062"/><stop stop-opacity="1" stop-color="rgb(55.905151%, 46.498108%, 88.659668%)" offset="0.792969"/><stop stop-opacity="1" stop-color="rgb(55.291748%, 46.318054%, 88.48114%)" offset="0.796875"/><stop stop-opacity="1" stop-color="rgb(54.678345%, 46.136475%, 88.302612%)" offset="0.800781"/><stop stop-opacity="1" stop-color="rgb(54.064941%, 45.956421%, 88.124084%)" offset="0.804688"/><stop stop-opacity="1" stop-color="rgb(53.450012%, 45.774841%, 87.945557%)" offset="0.808594"/><stop stop-opacity="1" stop-color="rgb(52.836609%, 45.593262%, 87.767029%)" offset="0.8125"/><stop stop-opacity="1" stop-color="rgb(52.22168%, 45.411682%, 87.588501%)" offset="0.816406"/><stop stop-opacity="1" stop-color="rgb(51.608276%, 45.231628%, 87.409973%)" offset="0.820312"/><stop stop-opacity="1" stop-color="rgb(50.993347%, 45.050049%, 87.231445%)" offset="0.824219"/><stop stop-opacity="1" stop-color="rgb(50.379944%, 44.869995%, 87.052917%)" offset="0.828125"/><stop stop-opacity="1" stop-color="rgb(49.766541%, 44.688416%, 86.87439%)" offset="0.832031"/><stop stop-opacity="1" stop-color="rgb(49.153137%, 44.506836%, 86.695862%)" offset="0.835937"/><stop stop-opacity="1" stop-color="rgb(48.538208%, 44.325256%, 86.517334%)" offset="0.839844"/><stop stop-opacity="1" stop-color="rgb(47.924805%, 44.145203%, 86.338806%)" offset="0.84375"/><stop stop-opacity="1" stop-color="rgb(47.309875%, 43.963623%, 86.160278%)" offset="0.847656"/><stop stop-opacity="1" stop-color="rgb(46.696472%, 43.783569%, 85.98175%)" offset="0.851563"/><stop stop-opacity="1" stop-color="rgb(46.083069%, 43.60199%, 85.803223%)" offset="0.855469"/><stop stop-opacity="1" stop-color="rgb(45.469666%, 43.42041%, 85.624695%)" offset="0.859375"/><stop stop-opacity="1" stop-color="rgb(44.854736%, 43.238831%, 85.446167%)" offset="0.863281"/><stop stop-opacity="1" stop-color="rgb(44.241333%, 43.058777%, 85.267639%)" offset="0.867188"/><stop stop-opacity="1" stop-color="rgb(43.626404%, 42.877197%, 85.089111%)" offset="0.871094"/><stop stop-opacity="1" stop-color="rgb(43.013%, 42.697144%, 84.910583%)" offset="0.875"/><stop stop-opacity="1" stop-color="rgb(42.398071%, 42.515564%, 84.732056%)" offset="0.878906"/><stop stop-opacity="1" stop-color="rgb(41.784668%, 42.333984%, 84.553528%)" offset="0.882812"/><stop stop-opacity="1" stop-color="rgb(41.171265%, 42.152405%, 84.375%)" offset="0.886719"/><stop stop-opacity="1" stop-color="rgb(40.557861%, 41.972351%, 84.196472%)" offset="0.890625"/><stop stop-opacity="1" stop-color="rgb(39.942932%, 41.790771%, 84.017944%)" offset="0.894531"/><stop stop-opacity="1" stop-color="rgb(39.329529%, 41.610718%, 83.839417%)" offset="0.898438"/><stop stop-opacity="1" stop-color="rgb(38.7146%, 41.429138%, 83.660889%)" offset="0.902344"/><stop stop-opacity="1" stop-color="rgb(38.101196%, 41.247559%, 83.482361%)" offset="0.90625"/><stop stop-opacity="1" stop-color="rgb(37.486267%, 41.065979%, 83.303833%)" offset="0.910156"/><stop stop-opacity="1" stop-color="rgb(36.872864%, 40.885925%, 83.125305%)" offset="0.914063"/><stop stop-opacity="1" stop-color="rgb(36.25946%, 40.704346%, 82.946777%)" offset="0.917969"/><stop stop-opacity="1" stop-color="rgb(35.646057%, 40.524292%, 82.76825%)" offset="0.921875"/><stop stop-opacity="1" stop-color="rgb(35.031128%, 40.342712%, 82.589722%)" offset="0.925781"/><stop stop-opacity="1" stop-color="rgb(34.417725%, 40.161133%, 82.411194%)" offset="0.929688"/><stop stop-opacity="1" stop-color="rgb(33.802795%, 39.979553%, 82.232666%)" offset="0.933594"/><stop stop-opacity="1" stop-color="rgb(33.189392%, 39.7995%, 82.054138%)" offset="0.9375"/><stop stop-opacity="1" stop-color="rgb(32.575989%, 39.61792%, 81.87561%)" offset="0.941406"/><stop stop-opacity="1" stop-color="rgb(31.962585%, 39.437866%, 81.697083%)" offset="0.945312"/><stop stop-opacity="1" stop-color="rgb(31.347656%, 39.256287%, 81.518555%)" offset="0.949219"/><stop stop-opacity="1" stop-color="rgb(30.734253%, 39.074707%, 81.340027%)" offset="0.953125"/><stop stop-opacity="1" stop-color="rgb(30.119324%, 38.893127%, 81.161499%)" offset="0.957031"/><stop stop-opacity="1" stop-color="rgb(29.50592%, 38.713074%, 80.982971%)" offset="0.960938"/><stop stop-opacity="1" stop-color="rgb(28.890991%, 38.531494%, 80.804443%)" offset="0.964844"/><stop stop-opacity="1" stop-color="rgb(28.277588%, 38.35144%, 80.625916%)" offset="0.96875"/><stop stop-opacity="1" stop-color="rgb(27.664185%, 38.169861%, 80.447388%)" offset="0.972656"/><stop stop-opacity="1" stop-color="rgb(27.050781%, 37.988281%, 80.26886%)" offset="0.976562"/><stop stop-opacity="1" stop-color="rgb(26.435852%, 37.806702%, 80.090332%)" offset="0.980469"/><stop stop-opacity="1" stop-color="rgb(25.822449%, 37.626648%, 79.911804%)" offset="0.984375"/><stop stop-opacity="1" stop-color="rgb(25.20752%, 37.445068%, 79.73175%)" offset="0.988281"/><stop stop-opacity="1" stop-color="rgb(24.594116%, 37.265015%, 79.553223%)" offset="0.992187"/><stop stop-opacity="1" stop-color="rgb(23.980713%, 37.083435%, 79.374695%)" offset="0.996094"/><stop stop-opacity="1" stop-color="rgb(23.36731%, 36.901855%, 79.196167%)" offset="1"/></linearGradient></defs><g clip-path="url(#510d7fc85e)"><g clip-path="url(#7129558c4a)"><g clip-path="url(#a910952a51)"><g clip-path="url(#b1008866e6)"><path fill="url(#f25f6c0860)" d="M 562.5 187.5 L 187.5 -187.5 L -187.5 187.5 L 187.5 562.5 Z M 562.5 187.5 " fill-rule="nonzero"/></g></g></g></g></svg>