<?xml version="1.0" standalone="no"?>
<!DOCTYPE svg PUBLIC "-//W3C//DTD SVG 20010904//EN"
 "http://www.w3.org/TR/2001/REC-SVG-20010904/DTD/svg10.dtd">
<svg version="1.0" xmlns="http://www.w3.org/2000/svg"
 width="1250.000000pt" height="1250.000000pt" viewBox="0 0 316 316"
 preserveAspectRatio="xMidYMid meet">

<g transform="translate(0.000000,1250.000000) scale(0.100000,-0.100000)"
fill="#000000" stroke="none">
<path d="M6224 9356 c-21 -21 -49 -43 -184 -142 -41 -30 -86 -64 -100 -74 -14
-11 -59 -45 -100 -75 -41 -31 -86 -65 -100 -75 -14 -11 -164 -123 -335 -250
-170 -127 -321 -239 -335 -250 -14 -11 -59 -45 -100 -75 -41 -31 -86 -65 -100
-75 -14 -11 -50 -38 -80 -60 -30 -22 -95 -71 -145 -108 l-90 -67 -3 -833 -2
-834 27 3 c18 2 43 -7 68 -24 34 -23 45 -26 92 -20 64 7 83 -5 83 -56 0 -20 7
-54 15 -76 8 -24 14 -79 15 -137 0 -79 3 -98 14 -98 8 0 22 10 30 22 12 17 18
20 28 10 7 -7 20 -12 30 -12 15 0 18 -8 18 -45 0 -33 5 -47 19 -54 17 -10 61
-123 61 -158 0 -14 108 -16 705 -13 l240 1 20 23 c11 14 31 41 45 61 14 20 36
51 50 70 14 18 54 77 90 130 36 53 70 102 77 109 12 14 113 159 158 228 13 20
29 39 35 43 12 7 14 25 2 25 -4 0 -44 -32 -87 -71 -44 -39 -127 -112 -185
-162 -58 -50 -121 -106 -140 -124 -113 -105 -221 -193 -237 -193 -38 0 -314
324 -298 349 2 5 37 28 77 52 105 63 92 55 228 150 93 65 188 145 263 223 42
44 77 84 77 88 0 14 -18 8 -47 -15 -23 -19 -90 -63 -188 -124 -18 -11 -48 -26
-140 -69 -16 -8 -37 -18 -45 -23 -45 -24 -62 -31 -79 -31 -11 0 -22 -4 -25 -9
-4 -5 -32 -17 -64 -26 -31 -9 -78 -23 -105 -32 -26 -8 -54 -13 -62 -9 -17 6
-87 144 -135 265 -32 81 -33 84 -15 97 10 8 31 14 47 14 24 0 175 44 233 69
65 27 355 177 382 197 17 13 36 24 41 24 12 0 166 102 170 113 2 4 8 7 12 7
11 0 160 100 215 145 42 33 78 55 92 55 5 0 38 -28 74 -62 36 -35 101 -94 145
-133 43 -38 104 -93 134 -121 30 -27 86 -77 125 -110 38 -32 94 -82 125 -110
96 -88 294 -268 333 -301 42 -36 46 -61 17 -88 -57 -51 -212 -319 -274 -470
-57 -141 -64 -162 -91 -250 -59 -194 -61 -240 -5 -159 13 20 43 55 65 78 79
82 45 76 467 76 l378 0 0 1060 c0 603 -4 1060 -9 1060 -5 0 -26 -21 -47 -47
-22 -26 -46 -55 -54 -63 -8 -9 -49 -54 -91 -100 -42 -47 -113 -125 -158 -175
-44 -49 -81 -94 -81 -98 0 -5 9 -22 20 -37 86 -121 122 -326 84 -487 -16 -69
-75 -206 -94 -218 -9 -5 -141 99 -220 175 -14 14 -66 61 -115 105 -50 44 -115
103 -145 130 -30 28 -91 82 -135 120 -44 39 -89 78 -100 88 -11 10 -68 62
-127 115 -60 53 -108 102 -108 109 0 6 21 26 48 45 190 136 448 155 660 49
l33 -16 35 40 c20 22 68 75 107 119 40 43 92 101 117 129 44 50 100 112 208
230 28 32 52 64 52 70 0 7 -20 26 -44 42 -24 17 -83 60 -132 97 -49 37 -114
86 -144 108 -30 22 -66 49 -80 60 -14 10 -59 44 -100 75 -41 30 -86 64 -100
75 -14 11 -164 123 -335 250 -170 127 -321 239 -335 250 -14 10 -59 44 -100
74 -41 30 -82 61 -90 69 -8 8 -36 28 -62 46 -27 17 -48 36 -48 41 0 15 -13 10
-36 -14z m-969 -1656 l0 -145 -145 0 -145 0 -5 138 c-3 84 -1 142 5 148 5 5
68 8 150 7 l140 -3 0 -145z m423 25 c2 -68 -1 -132 -7 -148 l-11 -28 -142 3
-143 3 -3 134 c-1 74 0 141 2 148 4 11 38 13 153 11 l148 -3 3 -120z m-423
-435 l0 -145 -135 -3 c-74 -1 -141 2 -149 7 -10 6 -13 39 -12 141 1 74 4 137
7 142 3 5 69 7 147 6 l142 -3 0 -145z m414 133 c14 -28 11 -261 -4 -273 -8 -7
-66 -10 -151 -8 l-139 3 -3 134 c-1 74 0 141 2 148 4 10 40 13 145 13 123 0
141 -2 150 -17z m-314 -538 c0 -13 -8 -21 -22 -23 -17 -3 -23 2 -23 16 0 10 3
22 7 26 13 13 38 1 38 -19z m-445 -269 c0 -16 -18 -31 -27 -22 -8 8 5 36 17
36 5 0 10 -6 10 -14z m906 -103 c-10 -10 -19 5 -10 18 6 11 8 11 12 0 2 -7 1
-15 -2 -18z m-338 -255 c19 -19 14 -30 -10 -26 -13 2 -24 11 -26 21 -4 20 18
23 36 5z"/>
<path d="M6768 6143 c-30 -32 -63 -71 -73 -88 -11 -16 -22 -32 -25 -35 -34
-28 -218 -355 -207 -367 4 -3 28 14 54 38 27 24 65 53 85 63 36 20 45 34 81
131 21 56 90 200 127 263 17 28 26 52 22 52 -5 0 -34 -26 -64 -57z"/>
<path d="M7653 5318 c-4 -7 -6 -71 -4 -143 3 -125 -9 -218 -30 -231 -5 -3 -23
2 -41 10 -53 27 -96 21 -134 -19 -59 -63 -63 -145 -12 -218 25 -36 88 -67 133
-67 19 0 44 -5 54 -12 34 -21 47 -3 69 94 77 327 78 431 6 569 -16 31 -28 36
-41 17z m-53 -467 c5 -11 10 -49 10 -85 0 -60 -2 -66 -21 -66 -20 0 -77 34
-91 55 -15 20 -8 75 12 95 26 26 76 26 90 1z"/>
<path d="M6320 5222 c-33 -10 -49 -36 -56 -91 -11 -92 -10 -91 -120 -86 -110
5 -165 -11 -248 -70 -64 -45 -86 -83 -86 -145 0 -44 3 -52 35 -76 40 -31 58
-29 148 17 63 32 87 36 87 15 0 -7 12 -26 26 -41 26 -28 26 -29 9 -57 -34 -59
-13 -138 42 -159 20 -7 30 -6 40 4 12 11 10 18 -8 41 -17 22 -20 36 -17 71 4
30 1 51 -9 65 -16 22 -15 27 12 149 13 61 14 75 3 82 -23 15 -34 10 -99 -49
-77 -71 -103 -86 -135 -78 -31 8 -30 24 5 73 22 30 51 50 115 81 95 46 99 47
144 31 l30 -10 -5 -129 c-5 -108 -3 -137 11 -175 12 -29 24 -45 35 -45 32 0
41 22 41 104 1 77 18 189 34 215 4 6 16 9 26 6 12 -4 22 1 29 13 8 15 5 24
-14 42 -28 26 -31 57 -14 126 9 33 8 48 0 58 -14 17 -40 24 -61 18z"/>
<path d="M7877 5163 c-15 -14 -5 -23 47 -47 58 -27 96 -66 96 -100 l0 -21 -18
22 c-9 12 -34 29 -55 38 -37 15 -39 15 -80 -12 -68 -45 -123 -180 -98 -241 27
-64 100 -122 155 -122 70 0 151 76 176 165 7 25 17 45 21 45 5 0 9 18 9 40 0
22 -4 40 -9 40 -5 0 -15 16 -22 37 -26 80 -186 193 -222 156z m161 -197 c9
-46 -64 -166 -101 -166 -24 0 -40 38 -34 82 8 56 31 88 67 88 16 0 32 5 35 11
10 15 29 6 33 -15z"/>
<path d="M4785 5094 c-3 -16 -10 -47 -15 -69 -53 -225 -67 -342 -52 -434 16
-93 49 -163 77 -159 19 3 20 9 16 109 -4 113 5 237 19 259 7 11 16 10 52 -3
24 -9 53 -17 65 -17 32 0 81 46 104 98 19 40 19 50 8 90 -13 47 -48 95 -83
114 -11 7 -41 15 -66 19 -25 4 -62 10 -82 14 -35 7 -37 6 -43 -21z m121 -50
c64 -30 84 -107 38 -143 -34 -26 -56 -27 -79 -1 -23 25 -33 123 -15 145 15 19
14 19 56 -1z"/>
<path d="M5658 5105 c-2 -3 -36 -6 -74 -7 -53 -2 -69 -6 -69 -18 0 -16 33 -27
82 -29 17 -1 39 -8 47 -17 21 -21 8 -39 -69 -97 -76 -55 -125 -111 -125 -142
0 -46 43 -64 165 -66 102 -2 109 -1 127 20 25 31 23 38 -16 77 -28 28 -38 32
-68 28 -24 -4 -38 -1 -47 10 -12 14 -8 21 25 52 40 36 87 64 109 64 19 0 45
34 45 59 0 36 -43 71 -88 71 -21 0 -41 -2 -44 -5z"/>
<path d="M4470 5057 c-33 -17 -55 -57 -47 -88 5 -18 21 -31 57 -47 45 -20 51
-26 48 -49 -2 -18 -15 -35 -38 -50 -45 -29 -100 -83 -100 -98 0 -20 35 -45 63
-45 55 0 165 77 187 131 14 32 -1 60 -64 117 -51 46 -38 68 44 74 38 3 67 10
77 21 24 23 14 28 -64 33 -37 2 -84 6 -103 9 -20 3 -46 0 -60 -8z"/>
<path d="M5130 4983 c0 -79 -7 -138 -30 -245 -9 -42 6 -81 33 -86 9 -2 37 4
62 13 48 19 47 16 80 191 7 38 38 69 60 60 18 -7 66 10 77 27 16 25 8 57 -16
68 -32 15 -72 4 -100 -26 -24 -25 -56 -34 -56 -15 0 16 -81 100 -96 100 -11 0
-14 -20 -14 -87z"/>
<path d="M6890 5068 c-1 -2 -2 -41 -4 -88 -2 -47 -9 -109 -17 -138 -20 -81 1
-103 80 -82 49 13 71 33 71 66 0 39 28 84 52 84 13 0 46 -26 87 -69 36 -37 76
-73 88 -80 26 -14 113 -15 113 -1 0 5 -20 36 -45 67 -25 32 -60 78 -78 103
-37 50 -90 90 -120 90 -11 0 -40 -16 -64 -36 -24 -20 -45 -35 -47 -33 -1 2
-10 18 -20 34 -26 43 -67 85 -83 85 -7 0 -13 -1 -13 -2z"/>
<path d="M6637 5031 c-26 -10 -53 -23 -59 -29 -7 -7 -17 -12 -23 -12 -16 0
-71 -54 -95 -92 -53 -88 18 -193 106 -157 71 29 94 40 99 49 13 21 44 9 64
-25 11 -19 27 -35 35 -35 19 0 49 99 50 165 1 48 0 50 -24 47 -15 -1 -50 -27
-85 -62 -33 -32 -72 -62 -88 -65 -35 -9 -60 10 -51 39 8 29 76 92 121 111 21
9 53 23 71 31 57 24 33 55 -43 53 -16 0 -52 -9 -78 -18z"/>
</g>
</svg>
